solid OpenSCAD_Model
  facet normal -1 0 0
    outer loop
      vertex -19.3 -17.1338 0
      vertex -19.3 17.1338 9
      vertex -19.3 17.1338 0
    endloop
  endfacet
  facet normal -1 -0 0
    outer loop
      vertex -19.3 17.1338 9
      vertex -19.3 -17.1338 0
      vertex -19.3 -17.1338 9
    endloop
  endfacet
  facet normal 0 0 1
    outer loop
      vertex 24.2 15.7338 9
      vertex 23.7 15.5267 9
      vertex 24.2 -15.7338 9
    endloop
  endfacet
  facet normal 0 0 1
    outer loop
      vertex 20.4338 19.5 9
      vertex 23.7 15.5267 9
      vertex 24.2 15.7338 9
    endloop
  endfacet
  facet normal 0 0 1
    outer loop
      vertex 20.4338 19.5 9
      vertex 20.2267 19 9
      vertex 23.7 15.5267 9
    endloop
  endfacet
  facet normal 0 0 1
    outer loop
      vertex 20.4338 19.5 9
      vertex -16.7267 19 9
      vertex 20.2267 19 9
    endloop
  endfacet
  facet normal -0 0 1
    outer loop
      vertex -16.9338 19.5 9
      vertex -16.7267 19 9
      vertex 20.4338 19.5 9
    endloop
  endfacet
  facet normal 0 0 1
    outer loop
      vertex -16.9338 19.5 9
      vertex -18.8 16.9267 9
      vertex -16.7267 19 9
    endloop
  endfacet
  facet normal 0 0 1
    outer loop
      vertex -18.8 16.9267 9
      vertex -19.3 17.1338 9
      vertex -18.8 -16.9267 9
    endloop
  endfacet
  facet normal -0 0 1
    outer loop
      vertex -19.3 17.1338 9
      vertex -18.8 16.9267 9
      vertex -16.9338 19.5 9
    endloop
  endfacet
  facet normal -0 0 1
    outer loop
      vertex 23.7 -15.5267 9
      vertex 24.2 -15.7338 9
      vertex 23.7 15.5267 9
    endloop
  endfacet
  facet normal 0 0 1
    outer loop
      vertex 23.7 -15.5267 9
      vertex 20.4338 -19.5 9
      vertex 24.2 -15.7338 9
    endloop
  endfacet
  facet normal -0 0 1
    outer loop
      vertex 20.2267 -19 9
      vertex 20.4338 -19.5 9
      vertex 23.7 -15.5267 9
    endloop
  endfacet
  facet normal -0 0 1
    outer loop
      vertex -16.7267 -19 9
      vertex 20.4338 -19.5 9
      vertex 20.2267 -19 9
    endloop
  endfacet
  facet normal 0 0 1
    outer loop
      vertex -16.7267 -19 9
      vertex -16.9338 -19.5 9
      vertex 20.4338 -19.5 9
    endloop
  endfacet
  facet normal 0 0 1
    outer loop
      vertex -18.8 -16.9267 9
      vertex -16.9338 -19.5 9
      vertex -16.7267 -19 9
    endloop
  endfacet
  facet normal 0 0 1
    outer loop
      vertex -18.8 -16.9267 9
      vertex -19.3 -17.1338 9
      vertex -16.9338 -19.5 9
    endloop
  endfacet
  facet normal 0 0 1
    outer loop
      vertex -19.3 -17.1338 9
      vertex -18.8 -16.9267 9
      vertex -19.3 17.1338 9
    endloop
  endfacet
  facet normal 1 -0 0
    outer loop
      vertex 24.2 -15.7338 9
      vertex 24.2 15.7338 0
      vertex 24.2 15.7338 9
    endloop
  endfacet
  facet normal 1 0 0
    outer loop
      vertex 24.2 15.7338 0
      vertex 24.2 -15.7338 9
      vertex 24.2 -15.7338 0
    endloop
  endfacet
  facet normal 0 0 -1
    outer loop
      vertex 20.4338 -19.5 0
      vertex 24.2 15.7338 0
      vertex 24.2 -15.7338 0
    endloop
  endfacet
  facet normal 0 0 -1
    outer loop
      vertex 20.4338 -19.5 0
      vertex 20.4338 19.5 0
      vertex 24.2 15.7338 0
    endloop
  endfacet
  facet normal 0 0 -1
    outer loop
      vertex -16.9338 -19.5 0
      vertex 20.4338 19.5 0
      vertex 20.4338 -19.5 0
    endloop
  endfacet
  facet normal 0 0 -1
    outer loop
      vertex -16.9338 -19.5 0
      vertex -16.9338 19.5 0
      vertex 20.4338 19.5 0
    endloop
  endfacet
  facet normal 0 0 -1
    outer loop
      vertex -19.3 -17.1338 0
      vertex -16.9338 19.5 0
      vertex -16.9338 -19.5 0
    endloop
  endfacet
  facet normal 0 0 -1
    outer loop
      vertex -16.9338 19.5 0
      vertex -19.3 -17.1338 0
      vertex -19.3 17.1338 0
    endloop
  endfacet
  facet normal 0 -1 0
    outer loop
      vertex -16.9338 -19.5 0
      vertex 20.4338 -19.5 9
      vertex -16.9338 -19.5 9
    endloop
  endfacet
  facet normal 0 -1 -0
    outer loop
      vertex 20.4338 -19.5 9
      vertex -16.9338 -19.5 0
      vertex 20.4338 -19.5 0
    endloop
  endfacet
  facet normal 0 1 -0
    outer loop
      vertex 20.4338 19.5 0
      vertex -16.9338 19.5 9
      vertex 20.4338 19.5 9
    endloop
  endfacet
  facet normal 0 1 0
    outer loop
      vertex -16.9338 19.5 9
      vertex 20.4338 19.5 0
      vertex -16.9338 19.5 0
    endloop
  endfacet
  facet normal 0.707107 0.707107 -0
    outer loop
      vertex 24.2 15.7338 0
      vertex 20.4338 19.5 9
      vertex 24.2 15.7338 9
    endloop
  endfacet
  facet normal 0.707107 0.707107 0
    outer loop
      vertex 20.4338 19.5 9
      vertex 24.2 15.7338 0
      vertex 20.4338 19.5 0
    endloop
  endfacet
  facet normal -0.707107 -0.707107 0
    outer loop
      vertex -16.9338 -19.5 0
      vertex -19.3 -17.1338 9
      vertex -19.3 -17.1338 0
    endloop
  endfacet
  facet normal -0.707107 -0.707107 0
    outer loop
      vertex -19.3 -17.1338 9
      vertex -16.9338 -19.5 0
      vertex -16.9338 -19.5 9
    endloop
  endfacet
  facet normal 0.707107 -0.707107 0
    outer loop
      vertex 20.4338 -19.5 0
      vertex 24.2 -15.7338 9
      vertex 20.4338 -19.5 9
    endloop
  endfacet
  facet normal 0.707107 -0.707107 0
    outer loop
      vertex 24.2 -15.7338 9
      vertex 20.4338 -19.5 0
      vertex 24.2 -15.7338 0
    endloop
  endfacet
  facet normal -0.707107 0.707107 0
    outer loop
      vertex -19.3 17.1338 0
      vertex -16.9338 19.5 9
      vertex -16.9338 19.5 0
    endloop
  endfacet
  facet normal -0.707107 0.707107 0
    outer loop
      vertex -16.9338 19.5 9
      vertex -19.3 17.1338 0
      vertex -19.3 17.1338 9
    endloop
  endfacet
  facet normal 1 -0 0
    outer loop
      vertex -18.8 -16.9267 9
      vertex -18.8 16.9267 0.6
      vertex -18.8 16.9267 9
    endloop
  endfacet
  facet normal 1 0 0
    outer loop
      vertex -18.8 16.9267 0.6
      vertex -18.8 -16.9267 9
      vertex -18.8 -16.9267 0.6
    endloop
  endfacet
  facet normal -1 0 0
    outer loop
      vertex 23.7 -11.8915 0.6
      vertex 23.7 -15.5267 0.6
      vertex 23.7 -11.8915 3.6
    endloop
  endfacet
  facet normal -1 0 0
    outer loop
      vertex 23.7 10.1085 0.6
      vertex 23.7 -10.1085 0.6
      vertex 23.7 10.1085 3.6
    endloop
  endfacet
  facet normal -1 0 0
    outer loop
      vertex 23.7 11.8915 3.6
      vertex 23.7 15.5267 0.6
      vertex 23.7 11.8915 0.6
    endloop
  endfacet
  facet normal -1 0 0
    outer loop
      vertex 23.7 15.5267 0.6
      vertex 23.7 11.8915 3.6
      vertex 23.7 15.5267 9
    endloop
  endfacet
  facet normal -1 0 0
    outer loop
      vertex 23.7 10.1085 3.6
      vertex 23.7 15.5267 9
      vertex 23.7 11.8915 3.6
    endloop
  endfacet
  facet normal -1 0 0
    outer loop
      vertex 23.7 -10.1085 3.6
      vertex 23.7 10.1085 3.6
      vertex 23.7 -10.1085 0.6
    endloop
  endfacet
  facet normal -1 0 0
    outer loop
      vertex 23.7 10.1085 3.6
      vertex 23.7 -10.1085 3.6
      vertex 23.7 15.5267 9
    endloop
  endfacet
  facet normal -1 0 0
    outer loop
      vertex 23.7 -15.5267 9
      vertex 23.7 -10.1085 3.6
      vertex 23.7 -11.8915 3.6
    endloop
  endfacet
  facet normal -1 0 0
    outer loop
      vertex 23.7 -10.1085 3.6
      vertex 23.7 -15.5267 9
      vertex 23.7 15.5267 9
    endloop
  endfacet
  facet normal -1 0 0
    outer loop
      vertex 23.7 -15.5267 9
      vertex 23.7 -11.8915 3.6
      vertex 23.7 -15.5267 0.6
    endloop
  endfacet
  facet normal 0 -1 0
    outer loop
      vertex -16.7267 19 0.6
      vertex 20.2267 19 9
      vertex -16.7267 19 9
    endloop
  endfacet
  facet normal 0 -1 -0
    outer loop
      vertex 20.2267 19 9
      vertex -16.7267 19 0.6
      vertex 20.2267 19 0.6
    endloop
  endfacet
  facet normal 0 0 1
    outer loop
      vertex 23.7 15.5267 0.6
      vertex 22.9635 12.4266 0.6
      vertex 23.7 11.8915 0.6
    endloop
  endfacet
  facet normal 0 0 1
    outer loop
      vertex 23.7 15.5267 0.6
      vertex 22.0365 12.4266 0.6
      vertex 22.9635 12.4266 0.6
    endloop
  endfacet
  facet normal 0 0 1
    outer loop
      vertex 20.2267 19 0.6
      vertex 22.0365 12.4266 0.6
      vertex 23.7 15.5267 0.6
    endloop
  endfacet
  facet normal -0 0 1
    outer loop
      vertex -9.5 12 0.6
      vertex 21 11 0.6
      vertex 20.2267 19 0.6
    endloop
  endfacet
  facet normal 0 0 1
    outer loop
      vertex 21.2865 11.8817 0.6
      vertex 20.2267 19 0.6
      vertex 21 11 0.6
    endloop
  endfacet
  facet normal 0 0 1
    outer loop
      vertex 22.0365 12.4266 0.6
      vertex 20.2267 19 0.6
      vertex 21.2865 11.8817 0.6
    endloop
  endfacet
  facet normal -0 0 1
    outer loop
      vertex 22.9635 9.57341 0.6
      vertex 23.7 -10.1085 0.6
      vertex 23.7 10.1085 0.6
    endloop
  endfacet
  facet normal 0 0 1
    outer loop
      vertex 22.9635 9.57341 0.6
      vertex 22.9635 -9.57341 0.6
      vertex 23.7 -10.1085 0.6
    endloop
  endfacet
  facet normal -0 0 1
    outer loop
      vertex 22.0365 9.57341 0.6
      vertex 22.9635 -9.57341 0.6
      vertex 22.9635 9.57341 0.6
    endloop
  endfacet
  facet normal 0 0 1
    outer loop
      vertex 22.0365 9.57341 0.6
      vertex 22.0365 -9.57341 0.6
      vertex 22.9635 -9.57341 0.6
    endloop
  endfacet
  facet normal 0 0 1
    outer loop
      vertex 21.2865 10.1183 0.6
      vertex 22.0365 -9.57341 0.6
      vertex 22.0365 9.57341 0.6
    endloop
  endfacet
  facet normal 0 0 1
    outer loop
      vertex 21.2865 10.1183 0.6
      vertex 21.2865 -10.1183 0.6
      vertex 22.0365 -9.57341 0.6
    endloop
  endfacet
  facet normal 0 0 1
    outer loop
      vertex 21 11 0.6
      vertex 21.2865 -10.1183 0.6
      vertex 21.2865 10.1183 0.6
    endloop
  endfacet
  facet normal 0 0 1
    outer loop
      vertex 21.2865 -10.1183 0.6
      vertex 21 11 0.6
      vertex 21 -11 0.6
    endloop
  endfacet
  facet normal -0 0 1
    outer loop
      vertex 22.9635 -12.4266 0.6
      vertex 23.7 -15.5267 0.6
      vertex 23.7 -11.8915 0.6
    endloop
  endfacet
  facet normal -0 0 1
    outer loop
      vertex 22.0365 -12.4266 0.6
      vertex 23.7 -15.5267 0.6
      vertex 22.9635 -12.4266 0.6
    endloop
  endfacet
  facet normal 0 0 1
    outer loop
      vertex 20.2267 -19 0.6
      vertex 22.0365 -12.4266 0.6
      vertex 21.2865 -11.8817 0.6
    endloop
  endfacet
  facet normal 0 0 1
    outer loop
      vertex 22.0365 -12.4266 0.6
      vertex 20.2267 -19 0.6
      vertex 23.7 -15.5267 0.6
    endloop
  endfacet
  facet normal 0 0 1
    outer loop
      vertex 21 -11 0.6
      vertex 20.2267 -19 0.6
      vertex 21.2865 -11.8817 0.6
    endloop
  endfacet
  facet normal 0 0 1
    outer loop
      vertex 21 11 0.6
      vertex -9.78647 11.1183 0.6
      vertex 21 -11 0.6
    endloop
  endfacet
  facet normal 0 0 1
    outer loop
      vertex 21 11 0.6
      vertex -9.5 12 0.6
      vertex -9.78647 11.1183 0.6
    endloop
  endfacet
  facet normal 0 0 1
    outer loop
      vertex 20.2267 19 0.6
      vertex -9.78647 12.8817 0.6
      vertex -9.5 12 0.6
    endloop
  endfacet
  facet normal 0 0 1
    outer loop
      vertex 20.2267 19 0.6
      vertex -10.5365 13.4266 0.6
      vertex -9.78647 12.8817 0.6
    endloop
  endfacet
  facet normal -0 0 1
    outer loop
      vertex -16.7267 19 0.6
      vertex -10.5365 13.4266 0.6
      vertex 20.2267 19 0.6
    endloop
  endfacet
  facet normal 0 0 1
    outer loop
      vertex -12.2135 11.1183 0.6
      vertex -18.8 16.9267 0.6
      vertex -12.2135 -11.1183 0.6
    endloop
  endfacet
  facet normal -0 0 1
    outer loop
      vertex -18.8 16.9267 0.6
      vertex -12.2135 12.8817 0.6
      vertex -16.7267 19 0.6
    endloop
  endfacet
  facet normal 0 0 1
    outer loop
      vertex -11.4635 13.4266 0.6
      vertex -16.7267 19 0.6
      vertex -12.2135 12.8817 0.6
    endloop
  endfacet
  facet normal 0 0 1
    outer loop
      vertex -10.5365 13.4266 0.6
      vertex -16.7267 19 0.6
      vertex -11.4635 13.4266 0.6
    endloop
  endfacet
  facet normal 0 -0 1
    outer loop
      vertex -9.5 -12 0.6
      vertex 21 -11 0.6
      vertex -9.78647 -11.1183 0.6
    endloop
  endfacet
  facet normal 0 0 1
    outer loop
      vertex 21 -11 0.6
      vertex -9.5 -12 0.6
      vertex 20.2267 -19 0.6
    endloop
  endfacet
  facet normal -0 0 1
    outer loop
      vertex -10.5365 10.5734 0.6
      vertex -9.78647 -11.1183 0.6
      vertex -9.78647 11.1183 0.6
    endloop
  endfacet
  facet normal 0 0 1
    outer loop
      vertex -10.5365 10.5734 0.6
      vertex -10.5365 -10.5734 0.6
      vertex -9.78647 -11.1183 0.6
    endloop
  endfacet
  facet normal -0 0 1
    outer loop
      vertex -11.4635 10.5734 0.6
      vertex -10.5365 -10.5734 0.6
      vertex -10.5365 10.5734 0.6
    endloop
  endfacet
  facet normal 0 0 1
    outer loop
      vertex -11.4635 10.5734 0.6
      vertex -11.4635 -10.5734 0.6
      vertex -10.5365 -10.5734 0.6
    endloop
  endfacet
  facet normal 0 0 1
    outer loop
      vertex -12.2135 11.1183 0.6
      vertex -11.4635 -10.5734 0.6
      vertex -11.4635 10.5734 0.6
    endloop
  endfacet
  facet normal 0 0 1
    outer loop
      vertex -12.2135 11.1183 0.6
      vertex -12.2135 -11.1183 0.6
      vertex -11.4635 -10.5734 0.6
    endloop
  endfacet
  facet normal 0 0 1
    outer loop
      vertex -12.2135 12.8817 0.6
      vertex -18.8 16.9267 0.6
      vertex -12.5 12 0.6
    endloop
  endfacet
  facet normal 0 0 1
    outer loop
      vertex -12.5 12 0.6
      vertex -18.8 16.9267 0.6
      vertex -12.2135 11.1183 0.6
    endloop
  endfacet
  facet normal 0 0 1
    outer loop
      vertex -9.78647 -11.1183 0.6
      vertex 21 -11 0.6
      vertex -9.78647 11.1183 0.6
    endloop
  endfacet
  facet normal -0 0 1
    outer loop
      vertex -9.78647 -12.8817 0.6
      vertex 20.2267 -19 0.6
      vertex -9.5 -12 0.6
    endloop
  endfacet
  facet normal -0 0 1
    outer loop
      vertex -10.5365 -13.4266 0.6
      vertex 20.2267 -19 0.6
      vertex -9.78647 -12.8817 0.6
    endloop
  endfacet
  facet normal 0 0 1
    outer loop
      vertex -16.7267 -19 0.6
      vertex -10.5365 -13.4266 0.6
      vertex -11.4635 -13.4266 0.6
    endloop
  endfacet
  facet normal 0 0 1
    outer loop
      vertex -10.5365 -13.4266 0.6
      vertex -16.7267 -19 0.6
      vertex 20.2267 -19 0.6
    endloop
  endfacet
  facet normal 0 0 1
    outer loop
      vertex -12.2135 -12.8817 0.6
      vertex -16.7267 -19 0.6
      vertex -11.4635 -13.4266 0.6
    endloop
  endfacet
  facet normal 0 0 1
    outer loop
      vertex -18.8 -16.9267 0.6
      vertex -12.2135 -12.8817 0.6
      vertex -12.5 -12 0.6
    endloop
  endfacet
  facet normal 0 0 1
    outer loop
      vertex -18.8 -16.9267 0.6
      vertex -12.2135 -11.1183 0.6
      vertex -18.8 16.9267 0.6
    endloop
  endfacet
  facet normal 0 0 1
    outer loop
      vertex -12.2135 -11.1183 0.6
      vertex -18.8 -16.9267 0.6
      vertex -12.5 -12 0.6
    endloop
  endfacet
  facet normal 0 0 1
    outer loop
      vertex -12.2135 -12.8817 0.6
      vertex -18.8 -16.9267 0.6
      vertex -16.7267 -19 0.6
    endloop
  endfacet
  facet normal 0 1 -0
    outer loop
      vertex 20.2267 -19 0.6
      vertex -16.7267 -19 9
      vertex 20.2267 -19 9
    endloop
  endfacet
  facet normal 0 1 0
    outer loop
      vertex -16.7267 -19 9
      vertex 20.2267 -19 0.6
      vertex -16.7267 -19 0.6
    endloop
  endfacet
  facet normal -0.707107 -0.707107 0
    outer loop
      vertex 23.7 15.5267 0.6
      vertex 20.2267 19 9
      vertex 20.2267 19 0.6
    endloop
  endfacet
  facet normal -0.707107 -0.707107 0
    outer loop
      vertex 20.2267 19 9
      vertex 23.7 15.5267 0.6
      vertex 23.7 15.5267 9
    endloop
  endfacet
  facet normal 0.707107 -0.707107 0
    outer loop
      vertex -18.8 16.9267 9
      vertex -16.7267 19 0.6
      vertex -16.7267 19 9
    endloop
  endfacet
  facet normal 0.707107 -0.707107 0
    outer loop
      vertex -16.7267 19 0.6
      vertex -18.8 16.9267 9
      vertex -18.8 16.9267 0.6
    endloop
  endfacet
  facet normal 0.707107 0.707107 0
    outer loop
      vertex -16.7267 -19 9
      vertex -18.8 -16.9267 0.6
      vertex -18.8 -16.9267 9
    endloop
  endfacet
  facet normal 0.707107 0.707107 0
    outer loop
      vertex -18.8 -16.9267 0.6
      vertex -16.7267 -19 9
      vertex -16.7267 -19 0.6
    endloop
  endfacet
  facet normal -0.707107 0.707107 0
    outer loop
      vertex 20.2267 -19 0.6
      vertex 23.7 -15.5267 9
      vertex 23.7 -15.5267 0.6
    endloop
  endfacet
  facet normal -0.707107 0.707107 0
    outer loop
      vertex 23.7 -15.5267 9
      vertex 20.2267 -19 0.6
      vertex 20.2267 -19 9
    endloop
  endfacet
  facet normal 0.951057 0.309017 0
    outer loop
      vertex -9.5 12 3.6
      vertex -9.78647 12.8817 0.6
      vertex -9.78647 12.8817 3.6
    endloop
  endfacet
  facet normal 0.951057 0.309017 0
    outer loop
      vertex -9.78647 12.8817 0.6
      vertex -9.5 12 3.6
      vertex -9.5 12 0.6
    endloop
  endfacet
  facet normal -0.951056 0.309018 0
    outer loop
      vertex -12.5 12 0.6
      vertex -12.2135 12.8817 3.6
      vertex -12.2135 12.8817 0.6
    endloop
  endfacet
  facet normal -0.951056 0.309018 0
    outer loop
      vertex -12.2135 12.8817 3.6
      vertex -12.5 12 0.6
      vertex -12.5 12 3.6
    endloop
  endfacet
  facet normal 0 1 -0
    outer loop
      vertex -10.5365 13.4266 0.6
      vertex -11.4635 13.4266 3.6
      vertex -10.5365 13.4266 3.6
    endloop
  endfacet
  facet normal 0 1 0
    outer loop
      vertex -11.4635 13.4266 3.6
      vertex -10.5365 13.4266 0.6
      vertex -11.4635 13.4266 0.6
    endloop
  endfacet
  facet normal 0.587785 0.809017 -0
    outer loop
      vertex -9.78647 12.8817 0.6
      vertex -10.5365 13.4266 3.6
      vertex -9.78647 12.8817 3.6
    endloop
  endfacet
  facet normal 0.587785 0.809017 0
    outer loop
      vertex -10.5365 13.4266 3.6
      vertex -9.78647 12.8817 0.6
      vertex -10.5365 13.4266 0.6
    endloop
  endfacet
  facet normal 0 0 1
    outer loop
      vertex -9.78647 12.8817 3.6
      vertex -9.78647 11.1183 3.6
      vertex -9.5 12 3.6
    endloop
  endfacet
  facet normal 0 0 1
    outer loop
      vertex -10.5365 13.4266 3.6
      vertex -9.78647 11.1183 3.6
      vertex -9.78647 12.8817 3.6
    endloop
  endfacet
  facet normal 0 0 1
    outer loop
      vertex -10.5365 13.4266 3.6
      vertex -10.5365 10.5734 3.6
      vertex -9.78647 11.1183 3.6
    endloop
  endfacet
  facet normal -0 0 1
    outer loop
      vertex -11.4635 13.4266 3.6
      vertex -10.5365 10.5734 3.6
      vertex -10.5365 13.4266 3.6
    endloop
  endfacet
  facet normal 0 0 1
    outer loop
      vertex -11.4635 13.4266 3.6
      vertex -11.4635 10.5734 3.6
      vertex -10.5365 10.5734 3.6
    endloop
  endfacet
  facet normal -0 0 1
    outer loop
      vertex -12.2135 12.8817 3.6
      vertex -11.4635 10.5734 3.6
      vertex -11.4635 13.4266 3.6
    endloop
  endfacet
  facet normal 0 0 1
    outer loop
      vertex -12.2135 12.8817 3.6
      vertex -12.2135 11.1183 3.6
      vertex -11.4635 10.5734 3.6
    endloop
  endfacet
  facet normal 0 -0 1
    outer loop
      vertex -12.2135 11.1183 3.6
      vertex -12.2135 12.8817 3.6
      vertex -12.5 12 3.6
    endloop
  endfacet
  facet normal -0.587785 0.809017 0
    outer loop
      vertex -11.4635 13.4266 0.6
      vertex -12.2135 12.8817 3.6
      vertex -11.4635 13.4266 3.6
    endloop
  endfacet
  facet normal -0.587785 0.809017 0
    outer loop
      vertex -12.2135 12.8817 3.6
      vertex -11.4635 13.4266 0.6
      vertex -12.2135 12.8817 0.6
    endloop
  endfacet
  facet normal 0 -1 0
    outer loop
      vertex -11.4635 10.5734 0.6
      vertex -10.5365 10.5734 3.6
      vertex -11.4635 10.5734 3.6
    endloop
  endfacet
  facet normal 0 -1 -0
    outer loop
      vertex -10.5365 10.5734 3.6
      vertex -11.4635 10.5734 0.6
      vertex -10.5365 10.5734 0.6
    endloop
  endfacet
  facet normal -0.951056 -0.309017 0
    outer loop
      vertex -12.2135 11.1183 0.6
      vertex -12.5 12 3.6
      vertex -12.5 12 0.6
    endloop
  endfacet
  facet normal -0.951056 -0.309017 0
    outer loop
      vertex -12.5 12 3.6
      vertex -12.2135 11.1183 0.6
      vertex -12.2135 11.1183 3.6
    endloop
  endfacet
  facet normal 0.587785 -0.809017 0
    outer loop
      vertex -10.5365 10.5734 0.6
      vertex -9.78647 11.1183 3.6
      vertex -10.5365 10.5734 3.6
    endloop
  endfacet
  facet normal 0.587785 -0.809017 0
    outer loop
      vertex -9.78647 11.1183 3.6
      vertex -10.5365 10.5734 0.6
      vertex -9.78647 11.1183 0.6
    endloop
  endfacet
  facet normal -0.587785 -0.809017 0
    outer loop
      vertex -12.2135 11.1183 0.6
      vertex -11.4635 10.5734 3.6
      vertex -12.2135 11.1183 3.6
    endloop
  endfacet
  facet normal -0.587785 -0.809017 -0
    outer loop
      vertex -11.4635 10.5734 3.6
      vertex -12.2135 11.1183 0.6
      vertex -11.4635 10.5734 0.6
    endloop
  endfacet
  facet normal 0.951057 -0.309016 0
    outer loop
      vertex -9.78647 11.1183 3.6
      vertex -9.5 12 0.6
      vertex -9.5 12 3.6
    endloop
  endfacet
  facet normal 0.951057 -0.309016 0
    outer loop
      vertex -9.5 12 0.6
      vertex -9.78647 11.1183 3.6
      vertex -9.78647 11.1183 0.6
    endloop
  endfacet
  facet normal 0.951057 0.309016 0
    outer loop
      vertex -9.5 -12 3.6
      vertex -9.78647 -11.1183 0.6
      vertex -9.78647 -11.1183 3.6
    endloop
  endfacet
  facet normal 0.951057 0.309016 0
    outer loop
      vertex -9.78647 -11.1183 0.6
      vertex -9.5 -12 3.6
      vertex -9.5 -12 0.6
    endloop
  endfacet
  facet normal -0.951056 0.309017 0
    outer loop
      vertex -12.5 -12 0.6
      vertex -12.2135 -11.1183 3.6
      vertex -12.2135 -11.1183 0.6
    endloop
  endfacet
  facet normal -0.951056 0.309017 0
    outer loop
      vertex -12.2135 -11.1183 3.6
      vertex -12.5 -12 0.6
      vertex -12.5 -12 3.6
    endloop
  endfacet
  facet normal 0 -1 0
    outer loop
      vertex -11.4635 -13.4266 0.6
      vertex -10.5365 -13.4266 3.6
      vertex -11.4635 -13.4266 3.6
    endloop
  endfacet
  facet normal 0 -1 -0
    outer loop
      vertex -10.5365 -13.4266 3.6
      vertex -11.4635 -13.4266 0.6
      vertex -10.5365 -13.4266 0.6
    endloop
  endfacet
  facet normal 0 1 -0
    outer loop
      vertex -10.5365 -10.5734 0.6
      vertex -11.4635 -10.5734 3.6
      vertex -10.5365 -10.5734 3.6
    endloop
  endfacet
  facet normal 0 1 0
    outer loop
      vertex -11.4635 -10.5734 3.6
      vertex -10.5365 -10.5734 0.6
      vertex -11.4635 -10.5734 0.6
    endloop
  endfacet
  facet normal 0.587785 0.809017 -0
    outer loop
      vertex -9.78647 -11.1183 0.6
      vertex -10.5365 -10.5734 3.6
      vertex -9.78647 -11.1183 3.6
    endloop
  endfacet
  facet normal 0.587785 0.809017 0
    outer loop
      vertex -10.5365 -10.5734 3.6
      vertex -9.78647 -11.1183 0.6
      vertex -10.5365 -10.5734 0.6
    endloop
  endfacet
  facet normal 0 0 1
    outer loop
      vertex -9.78647 -11.1183 3.6
      vertex -9.78647 -12.8817 3.6
      vertex -9.5 -12 3.6
    endloop
  endfacet
  facet normal 0 0 1
    outer loop
      vertex -10.5365 -10.5734 3.6
      vertex -9.78647 -12.8817 3.6
      vertex -9.78647 -11.1183 3.6
    endloop
  endfacet
  facet normal 0 0 1
    outer loop
      vertex -10.5365 -10.5734 3.6
      vertex -10.5365 -13.4266 3.6
      vertex -9.78647 -12.8817 3.6
    endloop
  endfacet
  facet normal -0 0 1
    outer loop
      vertex -11.4635 -10.5734 3.6
      vertex -10.5365 -13.4266 3.6
      vertex -10.5365 -10.5734 3.6
    endloop
  endfacet
  facet normal 0 0 1
    outer loop
      vertex -11.4635 -10.5734 3.6
      vertex -11.4635 -13.4266 3.6
      vertex -10.5365 -13.4266 3.6
    endloop
  endfacet
  facet normal -0 0 1
    outer loop
      vertex -12.2135 -11.1183 3.6
      vertex -11.4635 -13.4266 3.6
      vertex -11.4635 -10.5734 3.6
    endloop
  endfacet
  facet normal 0 0 1
    outer loop
      vertex -12.2135 -11.1183 3.6
      vertex -12.2135 -12.8817 3.6
      vertex -11.4635 -13.4266 3.6
    endloop
  endfacet
  facet normal 0 -0 1
    outer loop
      vertex -12.2135 -12.8817 3.6
      vertex -12.2135 -11.1183 3.6
      vertex -12.5 -12 3.6
    endloop
  endfacet
  facet normal -0.587785 0.809017 0
    outer loop
      vertex -11.4635 -10.5734 0.6
      vertex -12.2135 -11.1183 3.6
      vertex -11.4635 -10.5734 3.6
    endloop
  endfacet
  facet normal -0.587785 0.809017 0
    outer loop
      vertex -12.2135 -11.1183 3.6
      vertex -11.4635 -10.5734 0.6
      vertex -12.2135 -11.1183 0.6
    endloop
  endfacet
  facet normal -0.951056 -0.309018 0
    outer loop
      vertex -12.2135 -12.8817 0.6
      vertex -12.5 -12 3.6
      vertex -12.5 -12 0.6
    endloop
  endfacet
  facet normal -0.951056 -0.309018 0
    outer loop
      vertex -12.5 -12 3.6
      vertex -12.2135 -12.8817 0.6
      vertex -12.2135 -12.8817 3.6
    endloop
  endfacet
  facet normal 0.587785 -0.809017 0
    outer loop
      vertex -10.5365 -13.4266 0.6
      vertex -9.78647 -12.8817 3.6
      vertex -10.5365 -13.4266 3.6
    endloop
  endfacet
  facet normal 0.587785 -0.809017 0
    outer loop
      vertex -9.78647 -12.8817 3.6
      vertex -10.5365 -13.4266 0.6
      vertex -9.78647 -12.8817 0.6
    endloop
  endfacet
  facet normal -0.587785 -0.809017 0
    outer loop
      vertex -12.2135 -12.8817 0.6
      vertex -11.4635 -13.4266 3.6
      vertex -12.2135 -12.8817 3.6
    endloop
  endfacet
  facet normal -0.587785 -0.809017 -0
    outer loop
      vertex -11.4635 -13.4266 3.6
      vertex -12.2135 -12.8817 0.6
      vertex -11.4635 -13.4266 0.6
    endloop
  endfacet
  facet normal 0.951057 -0.309017 0
    outer loop
      vertex -9.78647 -12.8817 3.6
      vertex -9.5 -12 0.6
      vertex -9.5 -12 3.6
    endloop
  endfacet
  facet normal 0.951057 -0.309017 0
    outer loop
      vertex -9.5 -12 0.6
      vertex -9.78647 -12.8817 3.6
      vertex -9.78647 -12.8817 0.6
    endloop
  endfacet
  facet normal 0.587784 -0.809018 0
    outer loop
      vertex 22.9635 9.57341 0.6
      vertex 23.7 10.1085 3.6
      vertex 22.9635 9.57341 3.6
    endloop
  endfacet
  facet normal 0.587784 -0.809018 0
    outer loop
      vertex 23.7 10.1085 3.6
      vertex 22.9635 9.57341 0.6
      vertex 23.7 10.1085 0.6
    endloop
  endfacet
  facet normal -0.587785 0.809017 0
    outer loop
      vertex 22.0365 12.4266 0.6
      vertex 21.2865 11.8817 3.6
      vertex 22.0365 12.4266 3.6
    endloop
  endfacet
  facet normal -0.587785 0.809017 0
    outer loop
      vertex 21.2865 11.8817 3.6
      vertex 22.0365 12.4266 0.6
      vertex 21.2865 11.8817 0.6
    endloop
  endfacet
  facet normal 0.587784 0.809018 -0
    outer loop
      vertex 23.7 11.8915 0.6
      vertex 22.9635 12.4266 3.6
      vertex 23.7 11.8915 3.6
    endloop
  endfacet
  facet normal 0.587784 0.809018 0
    outer loop
      vertex 22.9635 12.4266 3.6
      vertex 23.7 11.8915 0.6
      vertex 22.9635 12.4266 0.6
    endloop
  endfacet
  facet normal 0 0 1
    outer loop
      vertex 22.9635 12.4266 3.6
      vertex 23.7 10.1085 3.6
      vertex 23.7 11.8915 3.6
    endloop
  endfacet
  facet normal 0 0 1
    outer loop
      vertex 22.9635 12.4266 3.6
      vertex 22.9635 9.57341 3.6
      vertex 23.7 10.1085 3.6
    endloop
  endfacet
  facet normal -0 0 1
    outer loop
      vertex 22.0365 12.4266 3.6
      vertex 22.9635 9.57341 3.6
      vertex 22.9635 12.4266 3.6
    endloop
  endfacet
  facet normal 0 0 1
    outer loop
      vertex 22.0365 12.4266 3.6
      vertex 22.0365 9.57341 3.6
      vertex 22.9635 9.57341 3.6
    endloop
  endfacet
  facet normal -0 0 1
    outer loop
      vertex 21.2865 11.8817 3.6
      vertex 22.0365 9.57341 3.6
      vertex 22.0365 12.4266 3.6
    endloop
  endfacet
  facet normal 0 0 1
    outer loop
      vertex 21.2865 11.8817 3.6
      vertex 21.2865 10.1183 3.6
      vertex 22.0365 9.57341 3.6
    endloop
  endfacet
  facet normal 0 -0 1
    outer loop
      vertex 21.2865 10.1183 3.6
      vertex 21.2865 11.8817 3.6
      vertex 21 11 3.6
    endloop
  endfacet
  facet normal -0.951057 0.309017 0
    outer loop
      vertex 21 11 0.6
      vertex 21.2865 11.8817 3.6
      vertex 21.2865 11.8817 0.6
    endloop
  endfacet
  facet normal -0.951057 0.309017 0
    outer loop
      vertex 21.2865 11.8817 3.6
      vertex 21 11 0.6
      vertex 21 11 3.6
    endloop
  endfacet
  facet normal 0 1 -0
    outer loop
      vertex 22.9635 12.4266 0.6
      vertex 22.0365 12.4266 3.6
      vertex 22.9635 12.4266 3.6
    endloop
  endfacet
  facet normal 0 1 0
    outer loop
      vertex 22.0365 12.4266 3.6
      vertex 22.9635 12.4266 0.6
      vertex 22.0365 12.4266 0.6
    endloop
  endfacet
  facet normal -0.951057 -0.309016 0
    outer loop
      vertex 21.2865 10.1183 0.6
      vertex 21 11 3.6
      vertex 21 11 0.6
    endloop
  endfacet
  facet normal -0.951057 -0.309016 0
    outer loop
      vertex 21 11 3.6
      vertex 21.2865 10.1183 0.6
      vertex 21.2865 10.1183 3.6
    endloop
  endfacet
  facet normal -0.587785 -0.809017 0
    outer loop
      vertex 21.2865 10.1183 0.6
      vertex 22.0365 9.57341 3.6
      vertex 21.2865 10.1183 3.6
    endloop
  endfacet
  facet normal -0.587785 -0.809017 -0
    outer loop
      vertex 22.0365 9.57341 3.6
      vertex 21.2865 10.1183 0.6
      vertex 22.0365 9.57341 0.6
    endloop
  endfacet
  facet normal 0 -1 0
    outer loop
      vertex 22.0365 9.57341 0.6
      vertex 22.9635 9.57341 3.6
      vertex 22.0365 9.57341 3.6
    endloop
  endfacet
  facet normal 0 -1 -0
    outer loop
      vertex 22.9635 9.57341 3.6
      vertex 22.0365 9.57341 0.6
      vertex 22.9635 9.57341 0.6
    endloop
  endfacet
  facet normal -0.587785 0.809017 0
    outer loop
      vertex 22.0365 -9.57341 0.6
      vertex 21.2865 -10.1183 3.6
      vertex 22.0365 -9.57341 3.6
    endloop
  endfacet
  facet normal -0.587785 0.809017 0
    outer loop
      vertex 21.2865 -10.1183 3.6
      vertex 22.0365 -9.57341 0.6
      vertex 21.2865 -10.1183 0.6
    endloop
  endfacet
  facet normal 0.587784 0.809018 -0
    outer loop
      vertex 23.7 -10.1085 0.6
      vertex 22.9635 -9.57341 3.6
      vertex 23.7 -10.1085 3.6
    endloop
  endfacet
  facet normal 0.587784 0.809018 0
    outer loop
      vertex 22.9635 -9.57341 3.6
      vertex 23.7 -10.1085 0.6
      vertex 22.9635 -9.57341 0.6
    endloop
  endfacet
  facet normal 0 0 1
    outer loop
      vertex 22.9635 -9.57341 3.6
      vertex 23.7 -11.8915 3.6
      vertex 23.7 -10.1085 3.6
    endloop
  endfacet
  facet normal 0 0 1
    outer loop
      vertex 22.9635 -9.57341 3.6
      vertex 22.9635 -12.4266 3.6
      vertex 23.7 -11.8915 3.6
    endloop
  endfacet
  facet normal -0 0 1
    outer loop
      vertex 22.0365 -9.57341 3.6
      vertex 22.9635 -12.4266 3.6
      vertex 22.9635 -9.57341 3.6
    endloop
  endfacet
  facet normal 0 0 1
    outer loop
      vertex 22.0365 -9.57341 3.6
      vertex 22.0365 -12.4266 3.6
      vertex 22.9635 -12.4266 3.6
    endloop
  endfacet
  facet normal -0 0 1
    outer loop
      vertex 21.2865 -10.1183 3.6
      vertex 22.0365 -12.4266 3.6
      vertex 22.0365 -9.57341 3.6
    endloop
  endfacet
  facet normal 0 0 1
    outer loop
      vertex 21.2865 -10.1183 3.6
      vertex 21.2865 -11.8817 3.6
      vertex 22.0365 -12.4266 3.6
    endloop
  endfacet
  facet normal 0 -0 1
    outer loop
      vertex 21.2865 -11.8817 3.6
      vertex 21.2865 -10.1183 3.6
      vertex 21 -11 3.6
    endloop
  endfacet
  facet normal -0.951057 0.309016 0
    outer loop
      vertex 21 -11 0.6
      vertex 21.2865 -10.1183 3.6
      vertex 21.2865 -10.1183 0.6
    endloop
  endfacet
  facet normal -0.951057 0.309016 0
    outer loop
      vertex 21.2865 -10.1183 3.6
      vertex 21 -11 0.6
      vertex 21 -11 3.6
    endloop
  endfacet
  facet normal 0.587784 -0.809018 0
    outer loop
      vertex 22.9635 -12.4266 0.6
      vertex 23.7 -11.8915 3.6
      vertex 22.9635 -12.4266 3.6
    endloop
  endfacet
  facet normal 0.587784 -0.809018 0
    outer loop
      vertex 23.7 -11.8915 3.6
      vertex 22.9635 -12.4266 0.6
      vertex 23.7 -11.8915 0.6
    endloop
  endfacet
  facet normal 0 1 -0
    outer loop
      vertex 22.9635 -9.57341 0.6
      vertex 22.0365 -9.57341 3.6
      vertex 22.9635 -9.57341 3.6
    endloop
  endfacet
  facet normal 0 1 0
    outer loop
      vertex 22.0365 -9.57341 3.6
      vertex 22.9635 -9.57341 0.6
      vertex 22.0365 -9.57341 0.6
    endloop
  endfacet
  facet normal -0.951057 -0.309017 0
    outer loop
      vertex 21.2865 -11.8817 0.6
      vertex 21 -11 3.6
      vertex 21 -11 0.6
    endloop
  endfacet
  facet normal -0.951057 -0.309017 0
    outer loop
      vertex 21 -11 3.6
      vertex 21.2865 -11.8817 0.6
      vertex 21.2865 -11.8817 3.6
    endloop
  endfacet
  facet normal -0.587785 -0.809017 0
    outer loop
      vertex 21.2865 -11.8817 0.6
      vertex 22.0365 -12.4266 3.6
      vertex 21.2865 -11.8817 3.6
    endloop
  endfacet
  facet normal -0.587785 -0.809017 -0
    outer loop
      vertex 22.0365 -12.4266 3.6
      vertex 21.2865 -11.8817 0.6
      vertex 22.0365 -12.4266 0.6
    endloop
  endfacet
  facet normal 0 -1 0
    outer loop
      vertex 22.0365 -12.4266 0.6
      vertex 22.9635 -12.4266 3.6
      vertex 22.0365 -12.4266 3.6
    endloop
  endfacet
  facet normal 0 -1 -0
    outer loop
      vertex 22.9635 -12.4266 3.6
      vertex 22.0365 -12.4266 0.6
      vertex 22.9635 -12.4266 0.6
    endloop
  endfacet
endsolid OpenSCAD_Model
