solid OpenSCAD_Model
  facet normal -1 0 0
    outer loop
      vertex -10 -15.4558 0
      vertex -10 15.4558 9
      vertex -10 15.4558 0
    endloop
  endfacet
  facet normal -1 -0 0
    outer loop
      vertex -10 15.4558 9
      vertex -10 -15.4558 0
      vertex -10 -15.4558 9
    endloop
  endfacet
  facet normal 0 0 1
    outer loop
      vertex 10 15.4558 9
      vertex 9.5 15.2487 9
      vertex 10 -15.4558 9
    endloop
  endfacet
  facet normal 0 0 1
    outer loop
      vertex 7.20584 18.25 9
      vertex 9.5 15.2487 9
      vertex 10 15.4558 9
    endloop
  endfacet
  facet normal 0 0 1
    outer loop
      vertex 7.20584 18.25 9
      vertex 6.99874 17.75 9
      vertex 9.5 15.2487 9
    endloop
  endfacet
  facet normal 0 0 1
    outer loop
      vertex 7.20584 18.25 9
      vertex -6.99874 17.75 9
      vertex 6.99874 17.75 9
    endloop
  endfacet
  facet normal -0 0 1
    outer loop
      vertex -7.20584 18.25 9
      vertex -6.99874 17.75 9
      vertex 7.20584 18.25 9
    endloop
  endfacet
  facet normal 0 0 1
    outer loop
      vertex -7.20584 18.25 9
      vertex -9.5 15.2487 9
      vertex -6.99874 17.75 9
    endloop
  endfacet
  facet normal 0 0 1
    outer loop
      vertex -9.5 15.2487 9
      vertex -10 15.4558 9
      vertex -9.5 -15.2487 9
    endloop
  endfacet
  facet normal -0 0 1
    outer loop
      vertex -10 15.4558 9
      vertex -9.5 15.2487 9
      vertex -7.20584 18.25 9
    endloop
  endfacet
  facet normal -0 0 1
    outer loop
      vertex 9.5 -15.2487 9
      vertex 10 -15.4558 9
      vertex 9.5 15.2487 9
    endloop
  endfacet
  facet normal 0 0 1
    outer loop
      vertex 9.5 -15.2487 9
      vertex 7.20584 -18.25 9
      vertex 10 -15.4558 9
    endloop
  endfacet
  facet normal -0 0 1
    outer loop
      vertex 6.99874 -17.75 9
      vertex 7.20584 -18.25 9
      vertex 9.5 -15.2487 9
    endloop
  endfacet
  facet normal -0 0 1
    outer loop
      vertex -6.99874 -17.75 9
      vertex 7.20584 -18.25 9
      vertex 6.99874 -17.75 9
    endloop
  endfacet
  facet normal 0 0 1
    outer loop
      vertex -6.99874 -17.75 9
      vertex -7.20584 -18.25 9
      vertex 7.20584 -18.25 9
    endloop
  endfacet
  facet normal 0 0 1
    outer loop
      vertex -9.5 -15.2487 9
      vertex -7.20584 -18.25 9
      vertex -6.99874 -17.75 9
    endloop
  endfacet
  facet normal 0 0 1
    outer loop
      vertex -9.5 -15.2487 9
      vertex -10 -15.4558 9
      vertex -7.20584 -18.25 9
    endloop
  endfacet
  facet normal 0 0 1
    outer loop
      vertex -10 -15.4558 9
      vertex -9.5 -15.2487 9
      vertex -10 15.4558 9
    endloop
  endfacet
  facet normal 1 -0 0
    outer loop
      vertex 10 -15.4558 9
      vertex 10 15.4558 0
      vertex 10 15.4558 9
    endloop
  endfacet
  facet normal 1 0 0
    outer loop
      vertex 10 15.4558 0
      vertex 10 -15.4558 9
      vertex 10 -15.4558 0
    endloop
  endfacet
  facet normal 0 0 -1
    outer loop
      vertex -10 -15.4558 0
      vertex 10 -15.4558 0
      vertex 7.20584 -18.25 0
    endloop
  endfacet
  facet normal 0 0 -1
    outer loop
      vertex 10 -15.4558 0
      vertex -10 -15.4558 0
      vertex 10 15.4558 0
    endloop
  endfacet
  facet normal 0 0 -1
    outer loop
      vertex -10 -15.4558 0
      vertex 7.20584 -18.25 0
      vertex -7.20584 -18.25 0
    endloop
  endfacet
  facet normal 0 0 -1
    outer loop
      vertex -10 15.4558 0
      vertex 10 15.4558 0
      vertex -10 -15.4558 0
    endloop
  endfacet
  facet normal 0 0 -1
    outer loop
      vertex 10 15.4558 0
      vertex -10 15.4558 0
      vertex 7.20584 18.25 0
    endloop
  endfacet
  facet normal -0 0 -1
    outer loop
      vertex 7.20584 18.25 0
      vertex -10 15.4558 0
      vertex -7.20584 18.25 0
    endloop
  endfacet
  facet normal 0 -1 0
    outer loop
      vertex -7.20584 -18.25 0
      vertex 7.20584 -18.25 9
      vertex -7.20584 -18.25 9
    endloop
  endfacet
  facet normal 0 -1 -0
    outer loop
      vertex 7.20584 -18.25 9
      vertex -7.20584 -18.25 0
      vertex 7.20584 -18.25 0
    endloop
  endfacet
  facet normal 0 1 -0
    outer loop
      vertex 7.20584 18.25 0
      vertex -7.20584 18.25 9
      vertex 7.20584 18.25 9
    endloop
  endfacet
  facet normal 0 1 0
    outer loop
      vertex -7.20584 18.25 9
      vertex 7.20584 18.25 0
      vertex -7.20584 18.25 0
    endloop
  endfacet
  facet normal 0.707107 0.707107 0
    outer loop
      vertex 10 15.4558 9
      vertex 7.20584 18.25 0
      vertex 7.20584 18.25 9
    endloop
  endfacet
  facet normal 0.707107 0.707107 0
    outer loop
      vertex 7.20584 18.25 0
      vertex 10 15.4558 9
      vertex 10 15.4558 0
    endloop
  endfacet
  facet normal -0.707107 0.707107 0
    outer loop
      vertex -10 15.4558 0
      vertex -7.20584 18.25 9
      vertex -7.20584 18.25 0
    endloop
  endfacet
  facet normal -0.707107 0.707107 0
    outer loop
      vertex -7.20584 18.25 9
      vertex -10 15.4558 0
      vertex -10 15.4558 9
    endloop
  endfacet
  facet normal -0.707107 -0.707107 0
    outer loop
      vertex -7.20584 -18.25 0
      vertex -10 -15.4558 9
      vertex -10 -15.4558 0
    endloop
  endfacet
  facet normal -0.707107 -0.707107 0
    outer loop
      vertex -10 -15.4558 9
      vertex -7.20584 -18.25 0
      vertex -7.20584 -18.25 9
    endloop
  endfacet
  facet normal 0.707107 -0.707107 0
    outer loop
      vertex 7.20584 -18.25 9
      vertex 10 -15.4558 0
      vertex 10 -15.4558 9
    endloop
  endfacet
  facet normal 0.707107 -0.707107 0
    outer loop
      vertex 10 -15.4558 0
      vertex 7.20584 -18.25 9
      vertex 7.20584 -18.25 0
    endloop
  endfacet
  facet normal 1 0 0
    outer loop
      vertex -9.5 15.2487 9
      vertex -9.5 12.8915 3.6
      vertex -9.5 15.2487 0.6
    endloop
  endfacet
  facet normal 1 0 0
    outer loop
      vertex -9.5 15.2487 9
      vertex -9.5 11.1085 3.6
      vertex -9.5 12.8915 3.6
    endloop
  endfacet
  facet normal 1 0 0
    outer loop
      vertex -9.5 11.1085 3.6
      vertex -9.5 -11.1085 3.6
      vertex -9.5 11.1085 0.6
    endloop
  endfacet
  facet normal 1 0 0
    outer loop
      vertex -9.5 15.2487 9
      vertex -9.5 -11.1085 3.6
      vertex -9.5 11.1085 3.6
    endloop
  endfacet
  facet normal 1 -0 0
    outer loop
      vertex -9.5 -15.2487 9
      vertex -9.5 -11.1085 3.6
      vertex -9.5 15.2487 9
    endloop
  endfacet
  facet normal 1 0 0
    outer loop
      vertex -9.5 -11.1085 3.6
      vertex -9.5 -15.2487 9
      vertex -9.5 -12.8915 3.6
    endloop
  endfacet
  facet normal 1 0 0
    outer loop
      vertex -9.5 -15.2487 0.6
      vertex -9.5 -12.8915 3.6
      vertex -9.5 -15.2487 9
    endloop
  endfacet
  facet normal 1 0 0
    outer loop
      vertex -9.5 -12.8915 3.6
      vertex -9.5 -15.2487 0.6
      vertex -9.5 -12.8915 0.6
    endloop
  endfacet
  facet normal 1 0 0
    outer loop
      vertex -9.5 15.2487 0.6
      vertex -9.5 12.8915 3.6
      vertex -9.5 12.8915 0.6
    endloop
  endfacet
  facet normal 1 0 0
    outer loop
      vertex -9.5 11.1085 0.6
      vertex -9.5 -11.1085 3.6
      vertex -9.5 -11.1085 0.6
    endloop
  endfacet
  facet normal -1 0 0
    outer loop
      vertex 9.5 -12.8915 0.6
      vertex 9.5 -15.2487 0.6
      vertex 9.5 -12.8915 3.6
    endloop
  endfacet
  facet normal -1 0 0
    outer loop
      vertex 9.5 11.1085 0.6
      vertex 9.5 -11.1085 0.6
      vertex 9.5 11.1085 3.6
    endloop
  endfacet
  facet normal -1 0 0
    outer loop
      vertex 9.5 12.8915 3.6
      vertex 9.5 15.2487 0.6
      vertex 9.5 12.8915 0.6
    endloop
  endfacet
  facet normal -1 0 0
    outer loop
      vertex 9.5 15.2487 0.6
      vertex 9.5 12.8915 3.6
      vertex 9.5 15.2487 9
    endloop
  endfacet
  facet normal -1 0 0
    outer loop
      vertex 9.5 11.1085 3.6
      vertex 9.5 15.2487 9
      vertex 9.5 12.8915 3.6
    endloop
  endfacet
  facet normal -1 0 0
    outer loop
      vertex 9.5 -11.1085 3.6
      vertex 9.5 11.1085 3.6
      vertex 9.5 -11.1085 0.6
    endloop
  endfacet
  facet normal -1 0 0
    outer loop
      vertex 9.5 11.1085 3.6
      vertex 9.5 -11.1085 3.6
      vertex 9.5 15.2487 9
    endloop
  endfacet
  facet normal -1 0 0
    outer loop
      vertex 9.5 -15.2487 9
      vertex 9.5 -11.1085 3.6
      vertex 9.5 -12.8915 3.6
    endloop
  endfacet
  facet normal -1 0 0
    outer loop
      vertex 9.5 -11.1085 3.6
      vertex 9.5 -15.2487 9
      vertex 9.5 15.2487 9
    endloop
  endfacet
  facet normal -1 0 0
    outer loop
      vertex 9.5 -15.2487 9
      vertex 9.5 -12.8915 3.6
      vertex 9.5 -15.2487 0.6
    endloop
  endfacet
  facet normal 0 -1 0
    outer loop
      vertex -6.99874 17.75 0.6
      vertex 6.99874 17.75 9
      vertex -6.99874 17.75 9
    endloop
  endfacet
  facet normal 0 -1 -0
    outer loop
      vertex 6.99874 17.75 9
      vertex -6.99874 17.75 0.6
      vertex 6.99874 17.75 0.6
    endloop
  endfacet
  facet normal 0 0 1
    outer loop
      vertex -7.83647 -10.5734 0.6
      vertex 7.83647 -10.5734 0.6
      vertex -7.83647 10.5734 0.6
    endloop
  endfacet
  facet normal 0 0 1
    outer loop
      vertex 7.08647 -11.1183 0.6
      vertex -7.08647 -11.1183 0.6
      vertex -6.8 -12 0.6
    endloop
  endfacet
  facet normal 0 0 1
    outer loop
      vertex 7.83647 -10.5734 0.6
      vertex -7.83647 -10.5734 0.6
      vertex 7.08647 -11.1183 0.6
    endloop
  endfacet
  facet normal 0 0 1
    outer loop
      vertex 7.08647 -11.1183 0.6
      vertex -7.83647 -10.5734 0.6
      vertex -7.08647 -11.1183 0.6
    endloop
  endfacet
  facet normal -0 0 1
    outer loop
      vertex -8.76353 10.5734 0.6
      vertex -7.83647 -10.5734 0.6
      vertex -7.83647 10.5734 0.6
    endloop
  endfacet
  facet normal 0 0 1
    outer loop
      vertex -8.76353 10.5734 0.6
      vertex -8.76353 -10.5734 0.6
      vertex -7.83647 -10.5734 0.6
    endloop
  endfacet
  facet normal 0 0 1
    outer loop
      vertex -9.5 11.1085 0.6
      vertex -8.76353 -10.5734 0.6
      vertex -8.76353 10.5734 0.6
    endloop
  endfacet
  facet normal 0 0 1
    outer loop
      vertex -8.76353 -10.5734 0.6
      vertex -9.5 11.1085 0.6
      vertex -9.5 -11.1085 0.6
    endloop
  endfacet
  facet normal 0 0 1
    outer loop
      vertex 9.5 15.2487 0.6
      vertex 8.76353 13.4266 0.6
      vertex 9.5 12.8915 0.6
    endloop
  endfacet
  facet normal 0 0 1
    outer loop
      vertex 9.5 15.2487 0.6
      vertex 7.83647 13.4266 0.6
      vertex 8.76353 13.4266 0.6
    endloop
  endfacet
  facet normal 0 0 1
    outer loop
      vertex 6.99874 17.75 0.6
      vertex 7.83647 13.4266 0.6
      vertex 9.5 15.2487 0.6
    endloop
  endfacet
  facet normal 0 0 1
    outer loop
      vertex 7.83647 13.4266 0.6
      vertex 6.99874 17.75 0.6
      vertex 7.08647 12.8817 0.6
    endloop
  endfacet
  facet normal 0 0 1
    outer loop
      vertex -7.08647 12.8817 0.6
      vertex 7.08647 12.8817 0.6
      vertex 6.99874 17.75 0.6
    endloop
  endfacet
  facet normal 0 0 1
    outer loop
      vertex 7.83647 10.5734 0.6
      vertex -7.83647 10.5734 0.6
      vertex 7.83647 -10.5734 0.6
    endloop
  endfacet
  facet normal 0 0 1
    outer loop
      vertex 7.08647 12.8817 0.6
      vertex -7.08647 12.8817 0.6
      vertex 6.8 12 0.6
    endloop
  endfacet
  facet normal 0 0 1
    outer loop
      vertex -7.08647 12.8817 0.6
      vertex 6.99874 17.75 0.6
      vertex -6.99874 17.75 0.6
    endloop
  endfacet
  facet normal 0 0 1
    outer loop
      vertex 6.8 12 0.6
      vertex -7.08647 12.8817 0.6
      vertex -6.8 12 0.6
    endloop
  endfacet
  facet normal 0 0 1
    outer loop
      vertex -6.99874 17.75 0.6
      vertex -7.83647 13.4266 0.6
      vertex -7.08647 12.8817 0.6
    endloop
  endfacet
  facet normal -0 0 1
    outer loop
      vertex -9.5 15.2487 0.6
      vertex -7.83647 13.4266 0.6
      vertex -6.99874 17.75 0.6
    endloop
  endfacet
  facet normal 0 0 1
    outer loop
      vertex -7.83647 13.4266 0.6
      vertex -9.5 15.2487 0.6
      vertex -8.76353 13.4266 0.6
    endloop
  endfacet
  facet normal 0 0 1
    outer loop
      vertex -8.76353 13.4266 0.6
      vertex -9.5 15.2487 0.6
      vertex -9.5 12.8915 0.6
    endloop
  endfacet
  facet normal -0 0 1
    outer loop
      vertex 8.76353 10.5734 0.6
      vertex 9.5 -11.1085 0.6
      vertex 9.5 11.1085 0.6
    endloop
  endfacet
  facet normal 0 0 1
    outer loop
      vertex 8.76353 10.5734 0.6
      vertex 8.76353 -10.5734 0.6
      vertex 9.5 -11.1085 0.6
    endloop
  endfacet
  facet normal -0 0 1
    outer loop
      vertex 7.83647 10.5734 0.6
      vertex 8.76353 -10.5734 0.6
      vertex 8.76353 10.5734 0.6
    endloop
  endfacet
  facet normal 0 0 1
    outer loop
      vertex 7.83647 10.5734 0.6
      vertex 7.83647 -10.5734 0.6
      vertex 8.76353 -10.5734 0.6
    endloop
  endfacet
  facet normal -0 0 1
    outer loop
      vertex -7.08647 11.1183 0.6
      vertex 7.83647 10.5734 0.6
      vertex 7.08647 11.1183 0.6
    endloop
  endfacet
  facet normal 0 0 1
    outer loop
      vertex -7.83647 10.5734 0.6
      vertex 7.83647 10.5734 0.6
      vertex -7.08647 11.1183 0.6
    endloop
  endfacet
  facet normal -0 0 1
    outer loop
      vertex -6.8 12 0.6
      vertex 7.08647 11.1183 0.6
      vertex 6.8 12 0.6
    endloop
  endfacet
  facet normal 0 0 1
    outer loop
      vertex -7.08647 11.1183 0.6
      vertex 7.08647 11.1183 0.6
      vertex -6.8 12 0.6
    endloop
  endfacet
  facet normal -0 0 1
    outer loop
      vertex 8.76353 -13.4266 0.6
      vertex 9.5 -15.2487 0.6
      vertex 9.5 -12.8915 0.6
    endloop
  endfacet
  facet normal -0 0 1
    outer loop
      vertex 7.83647 -13.4266 0.6
      vertex 9.5 -15.2487 0.6
      vertex 8.76353 -13.4266 0.6
    endloop
  endfacet
  facet normal 0 0 1
    outer loop
      vertex 6.99874 -17.75 0.6
      vertex 7.83647 -13.4266 0.6
      vertex 7.08647 -12.8817 0.6
    endloop
  endfacet
  facet normal 0 0 1
    outer loop
      vertex 7.83647 -13.4266 0.6
      vertex 6.99874 -17.75 0.6
      vertex 9.5 -15.2487 0.6
    endloop
  endfacet
  facet normal 0 0 1
    outer loop
      vertex -7.08647 -12.8817 0.6
      vertex 7.08647 -12.8817 0.6
      vertex 6.8 -12 0.6
    endloop
  endfacet
  facet normal 0 0 1
    outer loop
      vertex 7.08647 -11.1183 0.6
      vertex -6.8 -12 0.6
      vertex 6.8 -12 0.6
    endloop
  endfacet
  facet normal 0 0 1
    outer loop
      vertex -7.08647 -12.8817 0.6
      vertex 6.8 -12 0.6
      vertex -6.8 -12 0.6
    endloop
  endfacet
  facet normal 0 0 1
    outer loop
      vertex 7.08647 -12.8817 0.6
      vertex -7.08647 -12.8817 0.6
      vertex 6.99874 -17.75 0.6
    endloop
  endfacet
  facet normal 0 0 1
    outer loop
      vertex 6.99874 -17.75 0.6
      vertex -7.08647 -12.8817 0.6
      vertex -6.99874 -17.75 0.6
    endloop
  endfacet
  facet normal -0 0 1
    outer loop
      vertex -7.83647 -13.4266 0.6
      vertex -6.99874 -17.75 0.6
      vertex -7.08647 -12.8817 0.6
    endloop
  endfacet
  facet normal 0 0 1
    outer loop
      vertex -9.5 -15.2487 0.6
      vertex -7.83647 -13.4266 0.6
      vertex -8.76353 -13.4266 0.6
    endloop
  endfacet
  facet normal 0 0 1
    outer loop
      vertex -9.5 -15.2487 0.6
      vertex -8.76353 -13.4266 0.6
      vertex -9.5 -12.8915 0.6
    endloop
  endfacet
  facet normal 0 0 1
    outer loop
      vertex -7.83647 -13.4266 0.6
      vertex -9.5 -15.2487 0.6
      vertex -6.99874 -17.75 0.6
    endloop
  endfacet
  facet normal 0 1 -0
    outer loop
      vertex 6.99874 -17.75 0.6
      vertex -6.99874 -17.75 9
      vertex 6.99874 -17.75 9
    endloop
  endfacet
  facet normal 0 1 0
    outer loop
      vertex -6.99874 -17.75 9
      vertex 6.99874 -17.75 0.6
      vertex -6.99874 -17.75 0.6
    endloop
  endfacet
  facet normal -0.707107 -0.707107 0
    outer loop
      vertex 9.5 15.2487 0.6
      vertex 6.99874 17.75 9
      vertex 6.99874 17.75 0.6
    endloop
  endfacet
  facet normal -0.707107 -0.707107 0
    outer loop
      vertex 6.99874 17.75 9
      vertex 9.5 15.2487 0.6
      vertex 9.5 15.2487 9
    endloop
  endfacet
  facet normal 0.707107 0.707107 0
    outer loop
      vertex -6.99874 -17.75 9
      vertex -9.5 -15.2487 0.6
      vertex -9.5 -15.2487 9
    endloop
  endfacet
  facet normal 0.707107 0.707107 0
    outer loop
      vertex -9.5 -15.2487 0.6
      vertex -6.99874 -17.75 9
      vertex -6.99874 -17.75 0.6
    endloop
  endfacet
  facet normal -0.707107 0.707107 0
    outer loop
      vertex 6.99874 -17.75 0.6
      vertex 9.5 -15.2487 9
      vertex 9.5 -15.2487 0.6
    endloop
  endfacet
  facet normal -0.707107 0.707107 0
    outer loop
      vertex 9.5 -15.2487 9
      vertex 6.99874 -17.75 0.6
      vertex 6.99874 -17.75 9
    endloop
  endfacet
  facet normal 0.707107 -0.707107 0
    outer loop
      vertex -9.5 15.2487 9
      vertex -6.99874 17.75 0.6
      vertex -6.99874 17.75 9
    endloop
  endfacet
  facet normal 0.707107 -0.707107 0
    outer loop
      vertex -6.99874 17.75 0.6
      vertex -9.5 15.2487 9
      vertex -9.5 15.2487 0.6
    endloop
  endfacet
  facet normal 0.951056 0.309018 0
    outer loop
      vertex -6.8 12 3.6
      vertex -7.08647 12.8817 0.6
      vertex -7.08647 12.8817 3.6
    endloop
  endfacet
  facet normal 0.951056 0.309018 0
    outer loop
      vertex -7.08647 12.8817 0.6
      vertex -6.8 12 3.6
      vertex -6.8 12 0.6
    endloop
  endfacet
  facet normal 0.587785 -0.809017 0
    outer loop
      vertex -7.83647 10.5734 0.6
      vertex -7.08647 11.1183 3.6
      vertex -7.83647 10.5734 3.6
    endloop
  endfacet
  facet normal 0.587785 -0.809017 0
    outer loop
      vertex -7.08647 11.1183 3.6
      vertex -7.83647 10.5734 0.6
      vertex -7.08647 11.1183 0.6
    endloop
  endfacet
  facet normal -0.587785 0.809017 0
    outer loop
      vertex -8.76353 13.4266 0.6
      vertex -9.5 12.8915 3.6
      vertex -8.76353 13.4266 3.6
    endloop
  endfacet
  facet normal -0.587785 0.809017 0
    outer loop
      vertex -9.5 12.8915 3.6
      vertex -8.76353 13.4266 0.6
      vertex -9.5 12.8915 0.6
    endloop
  endfacet
  facet normal 0.587785 0.809017 -0
    outer loop
      vertex -7.08647 12.8817 0.6
      vertex -7.83647 13.4266 3.6
      vertex -7.08647 12.8817 3.6
    endloop
  endfacet
  facet normal 0.587785 0.809017 0
    outer loop
      vertex -7.83647 13.4266 3.6
      vertex -7.08647 12.8817 0.6
      vertex -7.83647 13.4266 0.6
    endloop
  endfacet
  facet normal 0 0 1
    outer loop
      vertex -7.08647 12.8817 3.6
      vertex -7.08647 11.1183 3.6
      vertex -6.8 12 3.6
    endloop
  endfacet
  facet normal 0 0 1
    outer loop
      vertex -7.83647 13.4266 3.6
      vertex -7.08647 11.1183 3.6
      vertex -7.08647 12.8817 3.6
    endloop
  endfacet
  facet normal 0 0 1
    outer loop
      vertex -7.83647 13.4266 3.6
      vertex -7.83647 10.5734 3.6
      vertex -7.08647 11.1183 3.6
    endloop
  endfacet
  facet normal -0 0 1
    outer loop
      vertex -8.76353 13.4266 3.6
      vertex -7.83647 10.5734 3.6
      vertex -7.83647 13.4266 3.6
    endloop
  endfacet
  facet normal 0 0 1
    outer loop
      vertex -8.76353 13.4266 3.6
      vertex -8.76353 10.5734 3.6
      vertex -7.83647 10.5734 3.6
    endloop
  endfacet
  facet normal -0 0 1
    outer loop
      vertex -9.5 12.8915 3.6
      vertex -8.76353 10.5734 3.6
      vertex -8.76353 13.4266 3.6
    endloop
  endfacet
  facet normal 0 0 1
    outer loop
      vertex -8.76353 10.5734 3.6
      vertex -9.5 12.8915 3.6
      vertex -9.5 11.1085 3.6
    endloop
  endfacet
  facet normal 0.951056 -0.309017 0
    outer loop
      vertex -7.08647 11.1183 3.6
      vertex -6.8 12 0.6
      vertex -6.8 12 3.6
    endloop
  endfacet
  facet normal 0.951056 -0.309017 0
    outer loop
      vertex -6.8 12 0.6
      vertex -7.08647 11.1183 3.6
      vertex -7.08647 11.1183 0.6
    endloop
  endfacet
  facet normal 0 1 -0
    outer loop
      vertex -7.83647 13.4266 0.6
      vertex -8.76353 13.4266 3.6
      vertex -7.83647 13.4266 3.6
    endloop
  endfacet
  facet normal 0 1 0
    outer loop
      vertex -8.76353 13.4266 3.6
      vertex -7.83647 13.4266 0.6
      vertex -8.76353 13.4266 0.6
    endloop
  endfacet
  facet normal 0 -1 0
    outer loop
      vertex -8.76353 10.5734 0.6
      vertex -7.83647 10.5734 3.6
      vertex -8.76353 10.5734 3.6
    endloop
  endfacet
  facet normal 0 -1 -0
    outer loop
      vertex -7.83647 10.5734 3.6
      vertex -8.76353 10.5734 0.6
      vertex -7.83647 10.5734 0.6
    endloop
  endfacet
  facet normal -0.587785 -0.809017 0
    outer loop
      vertex -9.5 11.1085 0.6
      vertex -8.76353 10.5734 3.6
      vertex -9.5 11.1085 3.6
    endloop
  endfacet
  facet normal -0.587785 -0.809017 -0
    outer loop
      vertex -8.76353 10.5734 3.6
      vertex -9.5 11.1085 0.6
      vertex -8.76353 10.5734 0.6
    endloop
  endfacet
  facet normal 0.951056 0.309017 0
    outer loop
      vertex -6.8 -12 3.6
      vertex -7.08647 -11.1183 0.6
      vertex -7.08647 -11.1183 3.6
    endloop
  endfacet
  facet normal 0.951056 0.309017 0
    outer loop
      vertex -7.08647 -11.1183 0.6
      vertex -6.8 -12 3.6
      vertex -6.8 -12 0.6
    endloop
  endfacet
  facet normal -0.587785 0.809017 0
    outer loop
      vertex -8.76353 -10.5734 0.6
      vertex -9.5 -11.1085 3.6
      vertex -8.76353 -10.5734 3.6
    endloop
  endfacet
  facet normal -0.587785 0.809017 0
    outer loop
      vertex -9.5 -11.1085 3.6
      vertex -8.76353 -10.5734 0.6
      vertex -9.5 -11.1085 0.6
    endloop
  endfacet
  facet normal 0.587785 0.809017 -0
    outer loop
      vertex -7.08647 -11.1183 0.6
      vertex -7.83647 -10.5734 3.6
      vertex -7.08647 -11.1183 3.6
    endloop
  endfacet
  facet normal 0.587785 0.809017 0
    outer loop
      vertex -7.83647 -10.5734 3.6
      vertex -7.08647 -11.1183 0.6
      vertex -7.83647 -10.5734 0.6
    endloop
  endfacet
  facet normal 0 0 1
    outer loop
      vertex -7.08647 -11.1183 3.6
      vertex -7.08647 -12.8817 3.6
      vertex -6.8 -12 3.6
    endloop
  endfacet
  facet normal 0 0 1
    outer loop
      vertex -7.83647 -10.5734 3.6
      vertex -7.08647 -12.8817 3.6
      vertex -7.08647 -11.1183 3.6
    endloop
  endfacet
  facet normal 0 0 1
    outer loop
      vertex -7.83647 -10.5734 3.6
      vertex -7.83647 -13.4266 3.6
      vertex -7.08647 -12.8817 3.6
    endloop
  endfacet
  facet normal -0 0 1
    outer loop
      vertex -8.76353 -10.5734 3.6
      vertex -7.83647 -13.4266 3.6
      vertex -7.83647 -10.5734 3.6
    endloop
  endfacet
  facet normal 0 0 1
    outer loop
      vertex -8.76353 -10.5734 3.6
      vertex -8.76353 -13.4266 3.6
      vertex -7.83647 -13.4266 3.6
    endloop
  endfacet
  facet normal -0 0 1
    outer loop
      vertex -9.5 -11.1085 3.6
      vertex -8.76353 -13.4266 3.6
      vertex -8.76353 -10.5734 3.6
    endloop
  endfacet
  facet normal 0 0 1
    outer loop
      vertex -8.76353 -13.4266 3.6
      vertex -9.5 -11.1085 3.6
      vertex -9.5 -12.8915 3.6
    endloop
  endfacet
  facet normal 0.587785 -0.809017 0
    outer loop
      vertex -7.83647 -13.4266 0.6
      vertex -7.08647 -12.8817 3.6
      vertex -7.83647 -13.4266 3.6
    endloop
  endfacet
  facet normal 0.587785 -0.809017 0
    outer loop
      vertex -7.08647 -12.8817 3.6
      vertex -7.83647 -13.4266 0.6
      vertex -7.08647 -12.8817 0.6
    endloop
  endfacet
  facet normal 0 1 -0
    outer loop
      vertex -7.83647 -10.5734 0.6
      vertex -8.76353 -10.5734 3.6
      vertex -7.83647 -10.5734 3.6
    endloop
  endfacet
  facet normal 0 1 0
    outer loop
      vertex -8.76353 -10.5734 3.6
      vertex -7.83647 -10.5734 0.6
      vertex -8.76353 -10.5734 0.6
    endloop
  endfacet
  facet normal -0.587785 -0.809017 0
    outer loop
      vertex -9.5 -12.8915 0.6
      vertex -8.76353 -13.4266 3.6
      vertex -9.5 -12.8915 3.6
    endloop
  endfacet
  facet normal -0.587785 -0.809017 -0
    outer loop
      vertex -8.76353 -13.4266 3.6
      vertex -9.5 -12.8915 0.6
      vertex -8.76353 -13.4266 0.6
    endloop
  endfacet
  facet normal 0.951056 -0.309018 0
    outer loop
      vertex -7.08647 -12.8817 3.6
      vertex -6.8 -12 0.6
      vertex -6.8 -12 3.6
    endloop
  endfacet
  facet normal 0.951056 -0.309018 0
    outer loop
      vertex -6.8 -12 0.6
      vertex -7.08647 -12.8817 3.6
      vertex -7.08647 -12.8817 0.6
    endloop
  endfacet
  facet normal 0 -1 0
    outer loop
      vertex -8.76353 -13.4266 0.6
      vertex -7.83647 -13.4266 3.6
      vertex -8.76353 -13.4266 3.6
    endloop
  endfacet
  facet normal 0 -1 -0
    outer loop
      vertex -7.83647 -13.4266 3.6
      vertex -8.76353 -13.4266 0.6
      vertex -7.83647 -13.4266 0.6
    endloop
  endfacet
  facet normal -0.951056 0.309018 0
    outer loop
      vertex 6.8 12 0.6
      vertex 7.08647 12.8817 3.6
      vertex 7.08647 12.8817 0.6
    endloop
  endfacet
  facet normal -0.951056 0.309018 0
    outer loop
      vertex 7.08647 12.8817 3.6
      vertex 6.8 12 0.6
      vertex 6.8 12 3.6
    endloop
  endfacet
  facet normal 0 1 -0
    outer loop
      vertex 8.76353 13.4266 0.6
      vertex 7.83647 13.4266 3.6
      vertex 8.76353 13.4266 3.6
    endloop
  endfacet
  facet normal 0 1 0
    outer loop
      vertex 7.83647 13.4266 3.6
      vertex 8.76353 13.4266 0.6
      vertex 7.83647 13.4266 0.6
    endloop
  endfacet
  facet normal 0.587785 0.809017 -0
    outer loop
      vertex 9.5 12.8915 0.6
      vertex 8.76353 13.4266 3.6
      vertex 9.5 12.8915 3.6
    endloop
  endfacet
  facet normal 0.587785 0.809017 0
    outer loop
      vertex 8.76353 13.4266 3.6
      vertex 9.5 12.8915 0.6
      vertex 8.76353 13.4266 0.6
    endloop
  endfacet
  facet normal 0 0 1
    outer loop
      vertex 8.76353 13.4266 3.6
      vertex 9.5 11.1085 3.6
      vertex 9.5 12.8915 3.6
    endloop
  endfacet
  facet normal 0 0 1
    outer loop
      vertex 8.76353 13.4266 3.6
      vertex 8.76353 10.5734 3.6
      vertex 9.5 11.1085 3.6
    endloop
  endfacet
  facet normal -0 0 1
    outer loop
      vertex 7.83647 13.4266 3.6
      vertex 8.76353 10.5734 3.6
      vertex 8.76353 13.4266 3.6
    endloop
  endfacet
  facet normal 0 0 1
    outer loop
      vertex 7.83647 13.4266 3.6
      vertex 7.83647 10.5734 3.6
      vertex 8.76353 10.5734 3.6
    endloop
  endfacet
  facet normal -0 0 1
    outer loop
      vertex 7.08647 12.8817 3.6
      vertex 7.83647 10.5734 3.6
      vertex 7.83647 13.4266 3.6
    endloop
  endfacet
  facet normal 0 0 1
    outer loop
      vertex 7.08647 12.8817 3.6
      vertex 7.08647 11.1183 3.6
      vertex 7.83647 10.5734 3.6
    endloop
  endfacet
  facet normal 0 -0 1
    outer loop
      vertex 7.08647 11.1183 3.6
      vertex 7.08647 12.8817 3.6
      vertex 6.8 12 3.6
    endloop
  endfacet
  facet normal -0.587785 0.809017 0
    outer loop
      vertex 7.83647 13.4266 0.6
      vertex 7.08647 12.8817 3.6
      vertex 7.83647 13.4266 3.6
    endloop
  endfacet
  facet normal -0.587785 0.809017 0
    outer loop
      vertex 7.08647 12.8817 3.6
      vertex 7.83647 13.4266 0.6
      vertex 7.08647 12.8817 0.6
    endloop
  endfacet
  facet normal 0 -1 0
    outer loop
      vertex 7.83647 10.5734 0.6
      vertex 8.76353 10.5734 3.6
      vertex 7.83647 10.5734 3.6
    endloop
  endfacet
  facet normal 0 -1 -0
    outer loop
      vertex 8.76353 10.5734 3.6
      vertex 7.83647 10.5734 0.6
      vertex 8.76353 10.5734 0.6
    endloop
  endfacet
  facet normal 0.587785 -0.809017 0
    outer loop
      vertex 8.76353 10.5734 0.6
      vertex 9.5 11.1085 3.6
      vertex 8.76353 10.5734 3.6
    endloop
  endfacet
  facet normal 0.587785 -0.809017 0
    outer loop
      vertex 9.5 11.1085 3.6
      vertex 8.76353 10.5734 0.6
      vertex 9.5 11.1085 0.6
    endloop
  endfacet
  facet normal -0.587785 -0.809017 0
    outer loop
      vertex 7.08647 11.1183 0.6
      vertex 7.83647 10.5734 3.6
      vertex 7.08647 11.1183 3.6
    endloop
  endfacet
  facet normal -0.587785 -0.809017 -0
    outer loop
      vertex 7.83647 10.5734 3.6
      vertex 7.08647 11.1183 0.6
      vertex 7.83647 10.5734 0.6
    endloop
  endfacet
  facet normal -0.951056 -0.309017 0
    outer loop
      vertex 7.08647 11.1183 0.6
      vertex 6.8 12 3.6
      vertex 6.8 12 0.6
    endloop
  endfacet
  facet normal -0.951056 -0.309017 0
    outer loop
      vertex 6.8 12 3.6
      vertex 7.08647 11.1183 0.6
      vertex 7.08647 11.1183 3.6
    endloop
  endfacet
  facet normal -0.951056 0.309017 0
    outer loop
      vertex 6.8 -12 0.6
      vertex 7.08647 -11.1183 3.6
      vertex 7.08647 -11.1183 0.6
    endloop
  endfacet
  facet normal -0.951056 0.309017 0
    outer loop
      vertex 7.08647 -11.1183 3.6
      vertex 6.8 -12 0.6
      vertex 6.8 -12 3.6
    endloop
  endfacet
  facet normal 0 -1 0
    outer loop
      vertex 7.83647 -13.4266 0.6
      vertex 8.76353 -13.4266 3.6
      vertex 7.83647 -13.4266 3.6
    endloop
  endfacet
  facet normal 0 -1 -0
    outer loop
      vertex 8.76353 -13.4266 3.6
      vertex 7.83647 -13.4266 0.6
      vertex 8.76353 -13.4266 0.6
    endloop
  endfacet
  facet normal 0 1 -0
    outer loop
      vertex 8.76353 -10.5734 0.6
      vertex 7.83647 -10.5734 3.6
      vertex 8.76353 -10.5734 3.6
    endloop
  endfacet
  facet normal 0 1 0
    outer loop
      vertex 7.83647 -10.5734 3.6
      vertex 8.76353 -10.5734 0.6
      vertex 7.83647 -10.5734 0.6
    endloop
  endfacet
  facet normal 0.587785 0.809017 -0
    outer loop
      vertex 9.5 -11.1085 0.6
      vertex 8.76353 -10.5734 3.6
      vertex 9.5 -11.1085 3.6
    endloop
  endfacet
  facet normal 0.587785 0.809017 0
    outer loop
      vertex 8.76353 -10.5734 3.6
      vertex 9.5 -11.1085 0.6
      vertex 8.76353 -10.5734 0.6
    endloop
  endfacet
  facet normal 0 0 1
    outer loop
      vertex 8.76353 -10.5734 3.6
      vertex 9.5 -12.8915 3.6
      vertex 9.5 -11.1085 3.6
    endloop
  endfacet
  facet normal 0 0 1
    outer loop
      vertex 8.76353 -10.5734 3.6
      vertex 8.76353 -13.4266 3.6
      vertex 9.5 -12.8915 3.6
    endloop
  endfacet
  facet normal -0 0 1
    outer loop
      vertex 7.83647 -10.5734 3.6
      vertex 8.76353 -13.4266 3.6
      vertex 8.76353 -10.5734 3.6
    endloop
  endfacet
  facet normal 0 0 1
    outer loop
      vertex 7.83647 -10.5734 3.6
      vertex 7.83647 -13.4266 3.6
      vertex 8.76353 -13.4266 3.6
    endloop
  endfacet
  facet normal -0 0 1
    outer loop
      vertex 7.08647 -11.1183 3.6
      vertex 7.83647 -13.4266 3.6
      vertex 7.83647 -10.5734 3.6
    endloop
  endfacet
  facet normal 0 0 1
    outer loop
      vertex 7.08647 -11.1183 3.6
      vertex 7.08647 -12.8817 3.6
      vertex 7.83647 -13.4266 3.6
    endloop
  endfacet
  facet normal 0 -0 1
    outer loop
      vertex 7.08647 -12.8817 3.6
      vertex 7.08647 -11.1183 3.6
      vertex 6.8 -12 3.6
    endloop
  endfacet
  facet normal -0.587785 0.809017 0
    outer loop
      vertex 7.83647 -10.5734 0.6
      vertex 7.08647 -11.1183 3.6
      vertex 7.83647 -10.5734 3.6
    endloop
  endfacet
  facet normal -0.587785 0.809017 0
    outer loop
      vertex 7.08647 -11.1183 3.6
      vertex 7.83647 -10.5734 0.6
      vertex 7.08647 -11.1183 0.6
    endloop
  endfacet
  facet normal -0.951056 -0.309018 0
    outer loop
      vertex 7.08647 -12.8817 0.6
      vertex 6.8 -12 3.6
      vertex 6.8 -12 0.6
    endloop
  endfacet
  facet normal -0.951056 -0.309018 0
    outer loop
      vertex 6.8 -12 3.6
      vertex 7.08647 -12.8817 0.6
      vertex 7.08647 -12.8817 3.6
    endloop
  endfacet
  facet normal 0.587785 -0.809017 0
    outer loop
      vertex 8.76353 -13.4266 0.6
      vertex 9.5 -12.8915 3.6
      vertex 8.76353 -13.4266 3.6
    endloop
  endfacet
  facet normal 0.587785 -0.809017 0
    outer loop
      vertex 9.5 -12.8915 3.6
      vertex 8.76353 -13.4266 0.6
      vertex 9.5 -12.8915 0.6
    endloop
  endfacet
  facet normal -0.587785 -0.809017 0
    outer loop
      vertex 7.08647 -12.8817 0.6
      vertex 7.83647 -13.4266 3.6
      vertex 7.08647 -12.8817 3.6
    endloop
  endfacet
  facet normal -0.587785 -0.809017 -0
    outer loop
      vertex 7.83647 -13.4266 3.6
      vertex 7.08647 -12.8817 0.6
      vertex 7.83647 -13.4266 0.6
    endloop
  endfacet
endsolid OpenSCAD_Model
