solid OpenSCAD_Model
  facet normal -1 0 0
    outer loop
      vertex -9.25 -15.5058 0
      vertex -9.25 15.5058 9
      vertex -9.25 15.5058 0
    endloop
  endfacet
  facet normal -1 -0 0
    outer loop
      vertex -9.25 15.5058 9
      vertex -9.25 -15.5058 0
      vertex -9.25 -15.5058 9
    endloop
  endfacet
  facet normal 0 0 1
    outer loop
      vertex 9.25 16.9058 9
      vertex 8.75 16.6987 9
      vertex 9.25 -16.9058 9
    endloop
  endfacet
  facet normal 0 0 1
    outer loop
      vertex 6.65584 19.5 9
      vertex 8.75 16.6987 9
      vertex 9.25 16.9058 9
    endloop
  endfacet
  facet normal 0 0 1
    outer loop
      vertex 6.65584 19.5 9
      vertex 6.44874 19 9
      vertex 8.75 16.6987 9
    endloop
  endfacet
  facet normal 0 0 1
    outer loop
      vertex 6.65584 19.5 9
      vertex -5.04874 19 9
      vertex 6.44874 19 9
    endloop
  endfacet
  facet normal -0 0 1
    outer loop
      vertex -5.25584 19.5 9
      vertex -5.04874 19 9
      vertex 6.65584 19.5 9
    endloop
  endfacet
  facet normal 0 0 1
    outer loop
      vertex -5.25584 19.5 9
      vertex -8.75 15.2987 9
      vertex -5.04874 19 9
    endloop
  endfacet
  facet normal 0 0 1
    outer loop
      vertex -8.75 15.2987 9
      vertex -9.25 15.5058 9
      vertex -8.75 -15.2987 9
    endloop
  endfacet
  facet normal -0 0 1
    outer loop
      vertex -9.25 15.5058 9
      vertex -8.75 15.2987 9
      vertex -5.25584 19.5 9
    endloop
  endfacet
  facet normal -0 0 1
    outer loop
      vertex 8.75 -16.6987 9
      vertex 9.25 -16.9058 9
      vertex 8.75 16.6987 9
    endloop
  endfacet
  facet normal 0 0 1
    outer loop
      vertex 8.75 -16.6987 9
      vertex 6.65584 -19.5 9
      vertex 9.25 -16.9058 9
    endloop
  endfacet
  facet normal -0 0 1
    outer loop
      vertex 6.44874 -19 9
      vertex 6.65584 -19.5 9
      vertex 8.75 -16.6987 9
    endloop
  endfacet
  facet normal -0 0 1
    outer loop
      vertex -5.04874 -19 9
      vertex 6.65584 -19.5 9
      vertex 6.44874 -19 9
    endloop
  endfacet
  facet normal 0 0 1
    outer loop
      vertex -5.04874 -19 9
      vertex -5.25584 -19.5 9
      vertex 6.65584 -19.5 9
    endloop
  endfacet
  facet normal 0 0 1
    outer loop
      vertex -8.75 -15.2987 9
      vertex -5.25584 -19.5 9
      vertex -5.04874 -19 9
    endloop
  endfacet
  facet normal 0 0 1
    outer loop
      vertex -8.75 -15.2987 9
      vertex -9.25 -15.5058 9
      vertex -5.25584 -19.5 9
    endloop
  endfacet
  facet normal 0 0 1
    outer loop
      vertex -9.25 -15.5058 9
      vertex -8.75 -15.2987 9
      vertex -9.25 15.5058 9
    endloop
  endfacet
  facet normal 1 -0 0
    outer loop
      vertex 9.25 -16.9058 9
      vertex 9.25 16.9058 0
      vertex 9.25 16.9058 9
    endloop
  endfacet
  facet normal 1 0 0
    outer loop
      vertex 9.25 16.9058 0
      vertex 9.25 -16.9058 9
      vertex 9.25 -16.9058 0
    endloop
  endfacet
  facet normal 0 1 -0
    outer loop
      vertex 6.65584 19.5 0
      vertex -5.25584 19.5 9
      vertex 6.65584 19.5 9
    endloop
  endfacet
  facet normal 0 1 0
    outer loop
      vertex -5.25584 19.5 9
      vertex 6.65584 19.5 0
      vertex -5.25584 19.5 0
    endloop
  endfacet
  facet normal 0 0 -1
    outer loop
      vertex -5.25584 -19.5 0
      vertex 9.25 -16.9058 0
      vertex 6.65584 -19.5 0
    endloop
  endfacet
  facet normal 0 0 -1
    outer loop
      vertex 9.25 -16.9058 0
      vertex -9.25 -15.5058 0
      vertex 9.25 16.9058 0
    endloop
  endfacet
  facet normal -0 0 -1
    outer loop
      vertex 9.25 -16.9058 0
      vertex -5.25584 -19.5 0
      vertex -9.25 -15.5058 0
    endloop
  endfacet
  facet normal 0 0 -1
    outer loop
      vertex -9.25 15.5058 0
      vertex 9.25 16.9058 0
      vertex -9.25 -15.5058 0
    endloop
  endfacet
  facet normal 0 -0 -1
    outer loop
      vertex -5.25584 19.5 0
      vertex 9.25 16.9058 0
      vertex -9.25 15.5058 0
    endloop
  endfacet
  facet normal 0 0 -1
    outer loop
      vertex 9.25 16.9058 0
      vertex -5.25584 19.5 0
      vertex 6.65584 19.5 0
    endloop
  endfacet
  facet normal 0 -1 0
    outer loop
      vertex -5.25584 -19.5 0
      vertex 6.65584 -19.5 9
      vertex -5.25584 -19.5 9
    endloop
  endfacet
  facet normal 0 -1 -0
    outer loop
      vertex 6.65584 -19.5 9
      vertex -5.25584 -19.5 0
      vertex 6.65584 -19.5 0
    endloop
  endfacet
  facet normal 0.707107 0.707107 0
    outer loop
      vertex 9.25 16.9058 9
      vertex 6.65584 19.5 0
      vertex 6.65584 19.5 9
    endloop
  endfacet
  facet normal 0.707107 0.707107 0
    outer loop
      vertex 6.65584 19.5 0
      vertex 9.25 16.9058 9
      vertex 9.25 16.9058 0
    endloop
  endfacet
  facet normal -0.707107 0.707107 0
    outer loop
      vertex -9.25 15.5058 0
      vertex -5.25584 19.5 9
      vertex -5.25584 19.5 0
    endloop
  endfacet
  facet normal -0.707107 0.707107 0
    outer loop
      vertex -5.25584 19.5 9
      vertex -9.25 15.5058 0
      vertex -9.25 15.5058 9
    endloop
  endfacet
  facet normal -0.707107 -0.707107 0
    outer loop
      vertex -5.25584 -19.5 0
      vertex -9.25 -15.5058 9
      vertex -9.25 -15.5058 0
    endloop
  endfacet
  facet normal -0.707107 -0.707107 0
    outer loop
      vertex -9.25 -15.5058 9
      vertex -5.25584 -19.5 0
      vertex -5.25584 -19.5 9
    endloop
  endfacet
  facet normal 0.707107 -0.707107 0
    outer loop
      vertex 6.65584 -19.5 9
      vertex 9.25 -16.9058 0
      vertex 9.25 -16.9058 9
    endloop
  endfacet
  facet normal 0.707107 -0.707107 0
    outer loop
      vertex 9.25 -16.9058 0
      vertex 6.65584 -19.5 9
      vertex 6.65584 -19.5 0
    endloop
  endfacet
  facet normal 1 0 0
    outer loop
      vertex -8.75 15.2987 9
      vertex -8.75 12.7694 3.6
      vertex -8.75 15.2987 0.6
    endloop
  endfacet
  facet normal 1 0 0
    outer loop
      vertex -8.75 15.2987 9
      vertex -8.75 11.2306 3.6
      vertex -8.75 12.7694 3.6
    endloop
  endfacet
  facet normal 1 0 0
    outer loop
      vertex -8.75 11.2306 3.6
      vertex -8.75 -11.2306 3.6
      vertex -8.75 11.2306 0.6
    endloop
  endfacet
  facet normal 1 0 0
    outer loop
      vertex -8.75 15.2987 9
      vertex -8.75 -11.2306 3.6
      vertex -8.75 11.2306 3.6
    endloop
  endfacet
  facet normal 1 -0 0
    outer loop
      vertex -8.75 -15.2987 9
      vertex -8.75 -11.2306 3.6
      vertex -8.75 15.2987 9
    endloop
  endfacet
  facet normal 1 0 0
    outer loop
      vertex -8.75 -11.2306 3.6
      vertex -8.75 -15.2987 9
      vertex -8.75 -12.7694 3.6
    endloop
  endfacet
  facet normal 1 0 0
    outer loop
      vertex -8.75 -15.2987 0.6
      vertex -8.75 -12.7694 3.6
      vertex -8.75 -15.2987 9
    endloop
  endfacet
  facet normal 1 0 0
    outer loop
      vertex -8.75 -12.7694 3.6
      vertex -8.75 -15.2987 0.6
      vertex -8.75 -12.7694 0.6
    endloop
  endfacet
  facet normal 1 0 0
    outer loop
      vertex -8.75 15.2987 0.6
      vertex -8.75 12.7694 3.6
      vertex -8.75 12.7694 0.6
    endloop
  endfacet
  facet normal 1 0 0
    outer loop
      vertex -8.75 11.2306 0.6
      vertex -8.75 -11.2306 3.6
      vertex -8.75 -11.2306 0.6
    endloop
  endfacet
  facet normal -1 0 0
    outer loop
      vertex 8.75 -16.6987 0.6
      vertex 8.75 16.6987 9
      vertex 8.75 16.6987 0.6
    endloop
  endfacet
  facet normal -1 -0 0
    outer loop
      vertex 8.75 16.6987 9
      vertex 8.75 -16.6987 0.6
      vertex 8.75 -16.6987 9
    endloop
  endfacet
  facet normal 0 -1 0
    outer loop
      vertex -5.04874 19 0.6
      vertex 6.44874 19 9
      vertex -5.04874 19 9
    endloop
  endfacet
  facet normal 0 -1 -0
    outer loop
      vertex 6.44874 19 9
      vertex -5.04874 19 0.6
      vertex 6.44874 19 0.6
    endloop
  endfacet
  facet normal 0 0 1
    outer loop
      vertex 5.28647 9.11832 0.6
      vertex -7.03647 10.5734 0.6
      vertex 5.28647 -9.11832 0.6
    endloop
  endfacet
  facet normal 0 0 1
    outer loop
      vertex 5.28647 -9.11832 0.6
      vertex -6.28647 -11.1183 0.6
      vertex -6 -12 0.6
    endloop
  endfacet
  facet normal 0 0 1
    outer loop
      vertex -7.03647 -10.5734 0.6
      vertex 5.28647 -9.11832 0.6
      vertex -7.03647 10.5734 0.6
    endloop
  endfacet
  facet normal 0 0 1
    outer loop
      vertex 5.28647 -9.11832 0.6
      vertex -7.03647 -10.5734 0.6
      vertex -6.28647 -11.1183 0.6
    endloop
  endfacet
  facet normal -0 0 1
    outer loop
      vertex -7.96352 10.5734 0.6
      vertex -7.03647 -10.5734 0.6
      vertex -7.03647 10.5734 0.6
    endloop
  endfacet
  facet normal 0 0 1
    outer loop
      vertex -7.96352 10.5734 0.6
      vertex -7.96352 -10.5734 0.6
      vertex -7.03647 -10.5734 0.6
    endloop
  endfacet
  facet normal 0 0 1
    outer loop
      vertex -8.71352 11.1183 0.6
      vertex -7.96352 -10.5734 0.6
      vertex -7.96352 10.5734 0.6
    endloop
  endfacet
  facet normal 0 0 1
    outer loop
      vertex -8.71352 11.1183 0.6
      vertex -8.71352 -11.1183 0.6
      vertex -7.96352 -10.5734 0.6
    endloop
  endfacet
  facet normal 0 0 1
    outer loop
      vertex -8.75 11.2306 0.6
      vertex -8.71352 -11.1183 0.6
      vertex -8.71352 11.1183 0.6
    endloop
  endfacet
  facet normal 0 0 1
    outer loop
      vertex -8.71352 -11.1183 0.6
      vertex -8.75 11.2306 0.6
      vertex -8.75 -11.2306 0.6
    endloop
  endfacet
  facet normal 0 0 1
    outer loop
      vertex -6.28647 -12.8817 0.6
      vertex 5.28647 -10.8817 0.6
      vertex -6 -12 0.6
    endloop
  endfacet
  facet normal 0 0 1
    outer loop
      vertex 5.28647 -10.8817 0.6
      vertex -6.28647 -12.8817 0.6
      vertex -5.04874 -19 0.6
    endloop
  endfacet
  facet normal -0 0 1
    outer loop
      vertex -7.03647 -13.4266 0.6
      vertex -5.04874 -19 0.6
      vertex -6.28647 -12.8817 0.6
    endloop
  endfacet
  facet normal 0 0 1
    outer loop
      vertex -8.75 -15.2987 0.6
      vertex -7.03647 -13.4266 0.6
      vertex -7.96352 -13.4266 0.6
    endloop
  endfacet
  facet normal 0 0 1
    outer loop
      vertex -8.75 -15.2987 0.6
      vertex -7.96352 -13.4266 0.6
      vertex -8.71352 -12.8817 0.6
    endloop
  endfacet
  facet normal 0 0 1
    outer loop
      vertex -7.03647 -13.4266 0.6
      vertex -8.75 -15.2987 0.6
      vertex -5.04874 -19 0.6
    endloop
  endfacet
  facet normal 0 0 1
    outer loop
      vertex -8.75 -15.2987 0.6
      vertex -8.71352 -12.8817 0.6
      vertex -8.75 -12.7694 0.6
    endloop
  endfacet
  facet normal -0 0 1
    outer loop
      vertex 7.71352 9.11832 0.6
      vertex 8 -10 0.6
      vertex 8 10 0.6
    endloop
  endfacet
  facet normal 0 0 1
    outer loop
      vertex 7.71352 9.11832 0.6
      vertex 7.71352 -9.11832 0.6
      vertex 8 -10 0.6
    endloop
  endfacet
  facet normal -0 0 1
    outer loop
      vertex 6.96352 8.57341 0.6
      vertex 7.71352 -9.11832 0.6
      vertex 7.71352 9.11832 0.6
    endloop
  endfacet
  facet normal 0 0 1
    outer loop
      vertex 6.96352 8.57341 0.6
      vertex 6.96352 -8.57341 0.6
      vertex 7.71352 -9.11832 0.6
    endloop
  endfacet
  facet normal -0 0 1
    outer loop
      vertex 6.03647 8.57341 0.6
      vertex 6.96352 -8.57341 0.6
      vertex 6.96352 8.57341 0.6
    endloop
  endfacet
  facet normal 0 0 1
    outer loop
      vertex 6.03647 8.57341 0.6
      vertex 6.03647 -8.57341 0.6
      vertex 6.96352 -8.57341 0.6
    endloop
  endfacet
  facet normal 0 0 1
    outer loop
      vertex 5.28647 9.11832 0.6
      vertex 6.03647 -8.57341 0.6
      vertex 6.03647 8.57341 0.6
    endloop
  endfacet
  facet normal 0 0 1
    outer loop
      vertex 5.28647 9.11832 0.6
      vertex 5.28647 -9.11832 0.6
      vertex 6.03647 -8.57341 0.6
    endloop
  endfacet
  facet normal -0 0 1
    outer loop
      vertex -6.28647 11.1183 0.6
      vertex 5 10 0.6
      vertex -6 12 0.6
    endloop
  endfacet
  facet normal 0 0 1
    outer loop
      vertex 5 10 0.6
      vertex -6.28647 11.1183 0.6
      vertex 5.28647 9.11832 0.6
    endloop
  endfacet
  facet normal 0 0 1
    outer loop
      vertex 8.75 16.6987 0.6
      vertex 8 10 0.6
      vertex 8.75 -16.6987 0.6
    endloop
  endfacet
  facet normal 0 0 1
    outer loop
      vertex 8.75 16.6987 0.6
      vertex 7.71352 10.8817 0.6
      vertex 8 10 0.6
    endloop
  endfacet
  facet normal 0 0 1
    outer loop
      vertex 8.75 16.6987 0.6
      vertex 6.96352 11.4266 0.6
      vertex 7.71352 10.8817 0.6
    endloop
  endfacet
  facet normal 0 0 1
    outer loop
      vertex 6.03647 11.4266 0.6
      vertex 8.75 16.6987 0.6
      vertex 6.44874 19 0.6
    endloop
  endfacet
  facet normal 0 0 1
    outer loop
      vertex 8.75 16.6987 0.6
      vertex 6.03647 11.4266 0.6
      vertex 6.96352 11.4266 0.6
    endloop
  endfacet
  facet normal 0 0 1
    outer loop
      vertex 6.44874 19 0.6
      vertex 5.28647 10.8817 0.6
      vertex 6.03647 11.4266 0.6
    endloop
  endfacet
  facet normal -0 0 1
    outer loop
      vertex -5.04874 19 0.6
      vertex 5.28647 10.8817 0.6
      vertex 6.44874 19 0.6
    endloop
  endfacet
  facet normal -0 -0 1
    outer loop
      vertex -6 12 0.6
      vertex 5.28647 10.8817 0.6
      vertex -6.28647 12.8817 0.6
    endloop
  endfacet
  facet normal -0 0 1
    outer loop
      vertex -6.28647 12.8817 0.6
      vertex 5.28647 10.8817 0.6
      vertex -5.04874 19 0.6
    endloop
  endfacet
  facet normal -0 0 1
    outer loop
      vertex 8 -10 0.6
      vertex 8.75 -16.6987 0.6
      vertex 8 10 0.6
    endloop
  endfacet
  facet normal -0 0 1
    outer loop
      vertex 7.71352 -10.8817 0.6
      vertex 8.75 -16.6987 0.6
      vertex 8 -10 0.6
    endloop
  endfacet
  facet normal -0 0 1
    outer loop
      vertex 6.96352 -11.4266 0.6
      vertex 8.75 -16.6987 0.6
      vertex 7.71352 -10.8817 0.6
    endloop
  endfacet
  facet normal -0 0 1
    outer loop
      vertex 6.03647 -11.4266 0.6
      vertex 8.75 -16.6987 0.6
      vertex 6.96352 -11.4266 0.6
    endloop
  endfacet
  facet normal 0 0 1
    outer loop
      vertex 8.75 -16.6987 0.6
      vertex 6.03647 -11.4266 0.6
      vertex 6.44874 -19 0.6
    endloop
  endfacet
  facet normal 0 0 1
    outer loop
      vertex 5.28647 -10.8817 0.6
      vertex 6.44874 -19 0.6
      vertex 6.03647 -11.4266 0.6
    endloop
  endfacet
  facet normal 0 0 1
    outer loop
      vertex -6 -12 0.6
      vertex 5.28647 -10.8817 0.6
      vertex 5 -10 0.6
    endloop
  endfacet
  facet normal -0 0 1
    outer loop
      vertex -7.03647 10.5734 0.6
      vertex 5.28647 9.11832 0.6
      vertex -6.28647 11.1183 0.6
    endloop
  endfacet
  facet normal 0 0 1
    outer loop
      vertex -6 -12 0.6
      vertex 5 -10 0.6
      vertex 5.28647 -9.11832 0.6
    endloop
  endfacet
  facet normal 0 0 1
    outer loop
      vertex 5.28647 -10.8817 0.6
      vertex -5.04874 -19 0.6
      vertex 6.44874 -19 0.6
    endloop
  endfacet
  facet normal 0 0 1
    outer loop
      vertex 5.28647 10.8817 0.6
      vertex -6 12 0.6
      vertex 5 10 0.6
    endloop
  endfacet
  facet normal 0 0 1
    outer loop
      vertex -5.04874 19 0.6
      vertex -7.03647 13.4266 0.6
      vertex -6.28647 12.8817 0.6
    endloop
  endfacet
  facet normal -0 0 1
    outer loop
      vertex -8.75 15.2987 0.6
      vertex -7.03647 13.4266 0.6
      vertex -5.04874 19 0.6
    endloop
  endfacet
  facet normal 0 0 1
    outer loop
      vertex -7.03647 13.4266 0.6
      vertex -8.75 15.2987 0.6
      vertex -7.96352 13.4266 0.6
    endloop
  endfacet
  facet normal 0 0 1
    outer loop
      vertex -7.96352 13.4266 0.6
      vertex -8.75 15.2987 0.6
      vertex -8.71352 12.8817 0.6
    endloop
  endfacet
  facet normal 0 0 1
    outer loop
      vertex -8.71352 12.8817 0.6
      vertex -8.75 15.2987 0.6
      vertex -8.75 12.7694 0.6
    endloop
  endfacet
  facet normal 0 1 -0
    outer loop
      vertex 6.44874 -19 0.6
      vertex -5.04874 -19 9
      vertex 6.44874 -19 9
    endloop
  endfacet
  facet normal 0 1 0
    outer loop
      vertex -5.04874 -19 9
      vertex 6.44874 -19 0.6
      vertex -5.04874 -19 0.6
    endloop
  endfacet
  facet normal -0.707107 -0.707107 0
    outer loop
      vertex 6.44874 19 0.6
      vertex 8.75 16.6987 9
      vertex 6.44874 19 9
    endloop
  endfacet
  facet normal -0.707107 -0.707107 -0
    outer loop
      vertex 8.75 16.6987 9
      vertex 6.44874 19 0.6
      vertex 8.75 16.6987 0.6
    endloop
  endfacet
  facet normal 0.707107 0.707107 0
    outer loop
      vertex -5.04874 -19 9
      vertex -8.75 -15.2987 0.6
      vertex -8.75 -15.2987 9
    endloop
  endfacet
  facet normal 0.707107 0.707107 0
    outer loop
      vertex -8.75 -15.2987 0.6
      vertex -5.04874 -19 9
      vertex -5.04874 -19 0.6
    endloop
  endfacet
  facet normal -0.707107 0.707107 0
    outer loop
      vertex 8.75 -16.6987 0.6
      vertex 6.44874 -19 9
      vertex 8.75 -16.6987 9
    endloop
  endfacet
  facet normal -0.707107 0.707107 0
    outer loop
      vertex 6.44874 -19 9
      vertex 8.75 -16.6987 0.6
      vertex 6.44874 -19 0.6
    endloop
  endfacet
  facet normal 0.707107 -0.707107 0
    outer loop
      vertex -8.75 15.2987 9
      vertex -5.04874 19 0.6
      vertex -5.04874 19 9
    endloop
  endfacet
  facet normal 0.707107 -0.707107 0
    outer loop
      vertex -5.04874 19 0.6
      vertex -8.75 15.2987 9
      vertex -8.75 15.2987 0.6
    endloop
  endfacet
  facet normal 0.951057 0.309017 0
    outer loop
      vertex -6 12 3.6
      vertex -6.28647 12.8817 0.6
      vertex -6.28647 12.8817 3.6
    endloop
  endfacet
  facet normal 0.951057 0.309017 0
    outer loop
      vertex -6.28647 12.8817 0.6
      vertex -6 12 3.6
      vertex -6 12 0.6
    endloop
  endfacet
  facet normal -0.951056 0.309017 0
    outer loop
      vertex -8.75 12.7694 0.6
      vertex -8.71352 12.8817 3.6
      vertex -8.71352 12.8817 0.6
    endloop
  endfacet
  facet normal -0.951056 0.309017 0
    outer loop
      vertex -8.71352 12.8817 3.6
      vertex -8.75 12.7694 0.6
      vertex -8.75 12.7694 3.6
    endloop
  endfacet
  facet normal 0 1 -0
    outer loop
      vertex -7.03647 13.4266 0.6
      vertex -7.96352 13.4266 3.6
      vertex -7.03647 13.4266 3.6
    endloop
  endfacet
  facet normal 0 1 0
    outer loop
      vertex -7.96352 13.4266 3.6
      vertex -7.03647 13.4266 0.6
      vertex -7.96352 13.4266 0.6
    endloop
  endfacet
  facet normal 0.587785 0.809017 -0
    outer loop
      vertex -6.28647 12.8817 0.6
      vertex -7.03647 13.4266 3.6
      vertex -6.28647 12.8817 3.6
    endloop
  endfacet
  facet normal 0.587785 0.809017 0
    outer loop
      vertex -7.03647 13.4266 3.6
      vertex -6.28647 12.8817 0.6
      vertex -7.03647 13.4266 0.6
    endloop
  endfacet
  facet normal 0 0 1
    outer loop
      vertex -6.28647 12.8817 3.6
      vertex -6.28647 11.1183 3.6
      vertex -6 12 3.6
    endloop
  endfacet
  facet normal 0 0 1
    outer loop
      vertex -8.75 12.7694 3.6
      vertex -6.28647 12.8817 3.6
      vertex -7.03647 13.4266 3.6
    endloop
  endfacet
  facet normal 0 0 1
    outer loop
      vertex -6.28647 12.8817 3.6
      vertex -8.75 12.7694 3.6
      vertex -6.28647 11.1183 3.6
    endloop
  endfacet
  facet normal 0 0 1
    outer loop
      vertex -8.75 12.7694 3.6
      vertex -7.03647 13.4266 3.6
      vertex -7.96352 13.4266 3.6
    endloop
  endfacet
  facet normal -0 0 1
    outer loop
      vertex -8.75 11.2306 3.6
      vertex -6.28647 11.1183 3.6
      vertex -8.75 12.7694 3.6
    endloop
  endfacet
  facet normal 0 0 1
    outer loop
      vertex -8.75 12.7694 3.6
      vertex -7.96352 13.4266 3.6
      vertex -8.71352 12.8817 3.6
    endloop
  endfacet
  facet normal 0 0 1
    outer loop
      vertex -6.28647 11.1183 3.6
      vertex -8.75 11.2306 3.6
      vertex -7.03647 10.5734 3.6
    endloop
  endfacet
  facet normal 0 0 1
    outer loop
      vertex -7.03647 10.5734 3.6
      vertex -8.75 11.2306 3.6
      vertex -7.96352 10.5734 3.6
    endloop
  endfacet
  facet normal 0 0 1
    outer loop
      vertex -7.96352 10.5734 3.6
      vertex -8.75 11.2306 3.6
      vertex -8.71352 11.1183 3.6
    endloop
  endfacet
  facet normal -0.587785 0.809017 0
    outer loop
      vertex -7.96352 13.4266 0.6
      vertex -8.71352 12.8817 3.6
      vertex -7.96352 13.4266 3.6
    endloop
  endfacet
  facet normal -0.587785 0.809017 0
    outer loop
      vertex -8.71352 12.8817 3.6
      vertex -7.96352 13.4266 0.6
      vertex -8.71352 12.8817 0.6
    endloop
  endfacet
  facet normal 0 -1 0
    outer loop
      vertex -7.96352 10.5734 0.6
      vertex -7.03647 10.5734 3.6
      vertex -7.96352 10.5734 3.6
    endloop
  endfacet
  facet normal 0 -1 -0
    outer loop
      vertex -7.03647 10.5734 3.6
      vertex -7.96352 10.5734 0.6
      vertex -7.03647 10.5734 0.6
    endloop
  endfacet
  facet normal 0.951057 -0.309016 0
    outer loop
      vertex -6.28647 11.1183 3.6
      vertex -6 12 0.6
      vertex -6 12 3.6
    endloop
  endfacet
  facet normal 0.951057 -0.309016 0
    outer loop
      vertex -6 12 0.6
      vertex -6.28647 11.1183 3.6
      vertex -6.28647 11.1183 0.6
    endloop
  endfacet
  facet normal 0.587785 -0.809017 0
    outer loop
      vertex -7.03647 10.5734 0.6
      vertex -6.28647 11.1183 3.6
      vertex -7.03647 10.5734 3.6
    endloop
  endfacet
  facet normal 0.587785 -0.809017 0
    outer loop
      vertex -6.28647 11.1183 3.6
      vertex -7.03647 10.5734 0.6
      vertex -6.28647 11.1183 0.6
    endloop
  endfacet
  facet normal -0.587785 -0.809017 0
    outer loop
      vertex -8.71352 11.1183 0.6
      vertex -7.96352 10.5734 3.6
      vertex -8.71352 11.1183 3.6
    endloop
  endfacet
  facet normal -0.587785 -0.809017 -0
    outer loop
      vertex -7.96352 10.5734 3.6
      vertex -8.71352 11.1183 0.6
      vertex -7.96352 10.5734 0.6
    endloop
  endfacet
  facet normal -0.951056 -0.309017 0
    outer loop
      vertex -8.71352 11.1183 0.6
      vertex -8.75 11.2306 3.6
      vertex -8.75 11.2306 0.6
    endloop
  endfacet
  facet normal -0.951056 -0.309017 0
    outer loop
      vertex -8.75 11.2306 3.6
      vertex -8.71352 11.1183 0.6
      vertex -8.71352 11.1183 3.6
    endloop
  endfacet
  facet normal 0.951057 0.309016 0
    outer loop
      vertex -6 -12 3.6
      vertex -6.28647 -11.1183 0.6
      vertex -6.28647 -11.1183 3.6
    endloop
  endfacet
  facet normal 0.951057 0.309016 0
    outer loop
      vertex -6.28647 -11.1183 0.6
      vertex -6 -12 3.6
      vertex -6 -12 0.6
    endloop
  endfacet
  facet normal -0.951056 0.309017 0
    outer loop
      vertex -8.75 -11.2306 0.6
      vertex -8.71352 -11.1183 3.6
      vertex -8.71352 -11.1183 0.6
    endloop
  endfacet
  facet normal -0.951056 0.309017 0
    outer loop
      vertex -8.71352 -11.1183 3.6
      vertex -8.75 -11.2306 0.6
      vertex -8.75 -11.2306 3.6
    endloop
  endfacet
  facet normal 0 -1 0
    outer loop
      vertex -7.96352 -13.4266 0.6
      vertex -7.03647 -13.4266 3.6
      vertex -7.96352 -13.4266 3.6
    endloop
  endfacet
  facet normal 0 -1 -0
    outer loop
      vertex -7.03647 -13.4266 3.6
      vertex -7.96352 -13.4266 0.6
      vertex -7.03647 -13.4266 0.6
    endloop
  endfacet
  facet normal 0 1 -0
    outer loop
      vertex -7.03647 -10.5734 0.6
      vertex -7.96352 -10.5734 3.6
      vertex -7.03647 -10.5734 3.6
    endloop
  endfacet
  facet normal 0 1 0
    outer loop
      vertex -7.96352 -10.5734 3.6
      vertex -7.03647 -10.5734 0.6
      vertex -7.96352 -10.5734 0.6
    endloop
  endfacet
  facet normal 0.587785 0.809017 -0
    outer loop
      vertex -6.28647 -11.1183 0.6
      vertex -7.03647 -10.5734 3.6
      vertex -6.28647 -11.1183 3.6
    endloop
  endfacet
  facet normal 0.587785 0.809017 0
    outer loop
      vertex -7.03647 -10.5734 3.6
      vertex -6.28647 -11.1183 0.6
      vertex -7.03647 -10.5734 0.6
    endloop
  endfacet
  facet normal 0 0 1
    outer loop
      vertex -6.28647 -11.1183 3.6
      vertex -6.28647 -12.8817 3.6
      vertex -6 -12 3.6
    endloop
  endfacet
  facet normal 0 0 1
    outer loop
      vertex -8.75 -11.2306 3.6
      vertex -6.28647 -11.1183 3.6
      vertex -7.03647 -10.5734 3.6
    endloop
  endfacet
  facet normal 0 0 1
    outer loop
      vertex -6.28647 -11.1183 3.6
      vertex -8.75 -11.2306 3.6
      vertex -6.28647 -12.8817 3.6
    endloop
  endfacet
  facet normal 0 0 1
    outer loop
      vertex -8.75 -11.2306 3.6
      vertex -7.03647 -10.5734 3.6
      vertex -7.96352 -10.5734 3.6
    endloop
  endfacet
  facet normal -0 0 1
    outer loop
      vertex -8.75 -12.7694 3.6
      vertex -6.28647 -12.8817 3.6
      vertex -8.75 -11.2306 3.6
    endloop
  endfacet
  facet normal 0 0 1
    outer loop
      vertex -8.75 -11.2306 3.6
      vertex -7.96352 -10.5734 3.6
      vertex -8.71352 -11.1183 3.6
    endloop
  endfacet
  facet normal 0 0 1
    outer loop
      vertex -6.28647 -12.8817 3.6
      vertex -8.75 -12.7694 3.6
      vertex -7.03647 -13.4266 3.6
    endloop
  endfacet
  facet normal 0 0 1
    outer loop
      vertex -7.03647 -13.4266 3.6
      vertex -8.75 -12.7694 3.6
      vertex -7.96352 -13.4266 3.6
    endloop
  endfacet
  facet normal 0 0 1
    outer loop
      vertex -7.96352 -13.4266 3.6
      vertex -8.75 -12.7694 3.6
      vertex -8.71352 -12.8817 3.6
    endloop
  endfacet
  facet normal -0.587785 0.809017 0
    outer loop
      vertex -7.96352 -10.5734 0.6
      vertex -8.71352 -11.1183 3.6
      vertex -7.96352 -10.5734 3.6
    endloop
  endfacet
  facet normal -0.587785 0.809017 0
    outer loop
      vertex -8.71352 -11.1183 3.6
      vertex -7.96352 -10.5734 0.6
      vertex -8.71352 -11.1183 0.6
    endloop
  endfacet
  facet normal 0.951057 -0.309017 0
    outer loop
      vertex -6.28647 -12.8817 3.6
      vertex -6 -12 0.6
      vertex -6 -12 3.6
    endloop
  endfacet
  facet normal 0.951057 -0.309017 0
    outer loop
      vertex -6 -12 0.6
      vertex -6.28647 -12.8817 3.6
      vertex -6.28647 -12.8817 0.6
    endloop
  endfacet
  facet normal 0.587785 -0.809017 0
    outer loop
      vertex -7.03647 -13.4266 0.6
      vertex -6.28647 -12.8817 3.6
      vertex -7.03647 -13.4266 3.6
    endloop
  endfacet
  facet normal 0.587785 -0.809017 0
    outer loop
      vertex -6.28647 -12.8817 3.6
      vertex -7.03647 -13.4266 0.6
      vertex -6.28647 -12.8817 0.6
    endloop
  endfacet
  facet normal -0.587785 -0.809017 0
    outer loop
      vertex -8.71352 -12.8817 0.6
      vertex -7.96352 -13.4266 3.6
      vertex -8.71352 -12.8817 3.6
    endloop
  endfacet
  facet normal -0.587785 -0.809017 -0
    outer loop
      vertex -7.96352 -13.4266 3.6
      vertex -8.71352 -12.8817 0.6
      vertex -7.96352 -13.4266 0.6
    endloop
  endfacet
  facet normal -0.951056 -0.309017 0
    outer loop
      vertex -8.71352 -12.8817 0.6
      vertex -8.75 -12.7694 3.6
      vertex -8.75 -12.7694 0.6
    endloop
  endfacet
  facet normal -0.951056 -0.309017 0
    outer loop
      vertex -8.75 -12.7694 3.6
      vertex -8.71352 -12.8817 0.6
      vertex -8.71352 -12.8817 3.6
    endloop
  endfacet
  facet normal 0.951056 0.309018 0
    outer loop
      vertex 8 10 3.6
      vertex 7.71352 10.8817 0.6
      vertex 7.71352 10.8817 3.6
    endloop
  endfacet
  facet normal 0.951056 0.309018 0
    outer loop
      vertex 7.71352 10.8817 0.6
      vertex 8 10 3.6
      vertex 8 10 0.6
    endloop
  endfacet
  facet normal 0.587785 -0.809017 0
    outer loop
      vertex 6.96352 8.57341 0.6
      vertex 7.71352 9.11832 3.6
      vertex 6.96352 8.57341 3.6
    endloop
  endfacet
  facet normal 0.587785 -0.809017 0
    outer loop
      vertex 7.71352 9.11832 3.6
      vertex 6.96352 8.57341 0.6
      vertex 7.71352 9.11832 0.6
    endloop
  endfacet
  facet normal -0.587785 0.809017 0
    outer loop
      vertex 6.03647 11.4266 0.6
      vertex 5.28647 10.8817 3.6
      vertex 6.03647 11.4266 3.6
    endloop
  endfacet
  facet normal -0.587785 0.809017 0
    outer loop
      vertex 5.28647 10.8817 3.6
      vertex 6.03647 11.4266 0.6
      vertex 5.28647 10.8817 0.6
    endloop
  endfacet
  facet normal 0.587785 0.809017 -0
    outer loop
      vertex 7.71352 10.8817 0.6
      vertex 6.96352 11.4266 3.6
      vertex 7.71352 10.8817 3.6
    endloop
  endfacet
  facet normal 0.587785 0.809017 0
    outer loop
      vertex 6.96352 11.4266 3.6
      vertex 7.71352 10.8817 0.6
      vertex 6.96352 11.4266 0.6
    endloop
  endfacet
  facet normal 0 0 1
    outer loop
      vertex 7.71352 10.8817 3.6
      vertex 7.71352 9.11832 3.6
      vertex 8 10 3.6
    endloop
  endfacet
  facet normal 0 0 1
    outer loop
      vertex 6.96352 11.4266 3.6
      vertex 7.71352 9.11832 3.6
      vertex 7.71352 10.8817 3.6
    endloop
  endfacet
  facet normal 0 0 1
    outer loop
      vertex 6.96352 11.4266 3.6
      vertex 6.96352 8.57341 3.6
      vertex 7.71352 9.11832 3.6
    endloop
  endfacet
  facet normal -0 0 1
    outer loop
      vertex 6.03647 11.4266 3.6
      vertex 6.96352 8.57341 3.6
      vertex 6.96352 11.4266 3.6
    endloop
  endfacet
  facet normal 0 0 1
    outer loop
      vertex 6.03647 11.4266 3.6
      vertex 6.03647 8.57341 3.6
      vertex 6.96352 8.57341 3.6
    endloop
  endfacet
  facet normal -0 0 1
    outer loop
      vertex 5.28647 10.8817 3.6
      vertex 6.03647 8.57341 3.6
      vertex 6.03647 11.4266 3.6
    endloop
  endfacet
  facet normal 0 0 1
    outer loop
      vertex 5.28647 10.8817 3.6
      vertex 5.28647 9.11832 3.6
      vertex 6.03647 8.57341 3.6
    endloop
  endfacet
  facet normal 0 -0 1
    outer loop
      vertex 5.28647 9.11832 3.6
      vertex 5.28647 10.8817 3.6
      vertex 5 10 3.6
    endloop
  endfacet
  facet normal -0.951057 0.309017 0
    outer loop
      vertex 5 10 0.6
      vertex 5.28647 10.8817 3.6
      vertex 5.28647 10.8817 0.6
    endloop
  endfacet
  facet normal -0.951057 0.309017 0
    outer loop
      vertex 5.28647 10.8817 3.6
      vertex 5 10 0.6
      vertex 5 10 3.6
    endloop
  endfacet
  facet normal 0.951056 -0.309017 0
    outer loop
      vertex 7.71352 9.11832 3.6
      vertex 8 10 0.6
      vertex 8 10 3.6
    endloop
  endfacet
  facet normal 0.951056 -0.309017 0
    outer loop
      vertex 8 10 0.6
      vertex 7.71352 9.11832 3.6
      vertex 7.71352 9.11832 0.6
    endloop
  endfacet
  facet normal 0 1 -0
    outer loop
      vertex 6.96352 11.4266 0.6
      vertex 6.03647 11.4266 3.6
      vertex 6.96352 11.4266 3.6
    endloop
  endfacet
  facet normal 0 1 0
    outer loop
      vertex 6.03647 11.4266 3.6
      vertex 6.96352 11.4266 0.6
      vertex 6.03647 11.4266 0.6
    endloop
  endfacet
  facet normal -0.951057 -0.309016 0
    outer loop
      vertex 5.28647 9.11832 0.6
      vertex 5 10 3.6
      vertex 5 10 0.6
    endloop
  endfacet
  facet normal -0.951057 -0.309016 0
    outer loop
      vertex 5 10 3.6
      vertex 5.28647 9.11832 0.6
      vertex 5.28647 9.11832 3.6
    endloop
  endfacet
  facet normal 0 -1 0
    outer loop
      vertex 6.03647 8.57341 0.6
      vertex 6.96352 8.57341 3.6
      vertex 6.03647 8.57341 3.6
    endloop
  endfacet
  facet normal 0 -1 -0
    outer loop
      vertex 6.96352 8.57341 3.6
      vertex 6.03647 8.57341 0.6
      vertex 6.96352 8.57341 0.6
    endloop
  endfacet
  facet normal -0.587785 -0.809017 0
    outer loop
      vertex 5.28647 9.11832 0.6
      vertex 6.03647 8.57341 3.6
      vertex 5.28647 9.11832 3.6
    endloop
  endfacet
  facet normal -0.587785 -0.809017 -0
    outer loop
      vertex 6.03647 8.57341 3.6
      vertex 5.28647 9.11832 0.6
      vertex 6.03647 8.57341 0.6
    endloop
  endfacet
  facet normal 0.951056 0.309017 0
    outer loop
      vertex 8 -10 3.6
      vertex 7.71352 -9.11832 0.6
      vertex 7.71352 -9.11832 3.6
    endloop
  endfacet
  facet normal 0.951056 0.309017 0
    outer loop
      vertex 7.71352 -9.11832 0.6
      vertex 8 -10 3.6
      vertex 8 -10 0.6
    endloop
  endfacet
  facet normal -0.587785 0.809017 0
    outer loop
      vertex 6.03647 -8.57341 0.6
      vertex 5.28647 -9.11832 3.6
      vertex 6.03647 -8.57341 3.6
    endloop
  endfacet
  facet normal -0.587785 0.809017 0
    outer loop
      vertex 5.28647 -9.11832 3.6
      vertex 6.03647 -8.57341 0.6
      vertex 5.28647 -9.11832 0.6
    endloop
  endfacet
  facet normal 0.587785 0.809017 -0
    outer loop
      vertex 7.71352 -9.11832 0.6
      vertex 6.96352 -8.57341 3.6
      vertex 7.71352 -9.11832 3.6
    endloop
  endfacet
  facet normal 0.587785 0.809017 0
    outer loop
      vertex 6.96352 -8.57341 3.6
      vertex 7.71352 -9.11832 0.6
      vertex 6.96352 -8.57341 0.6
    endloop
  endfacet
  facet normal 0 0 1
    outer loop
      vertex 7.71352 -9.11832 3.6
      vertex 7.71352 -10.8817 3.6
      vertex 8 -10 3.6
    endloop
  endfacet
  facet normal 0 0 1
    outer loop
      vertex 6.96352 -8.57341 3.6
      vertex 7.71352 -10.8817 3.6
      vertex 7.71352 -9.11832 3.6
    endloop
  endfacet
  facet normal 0 0 1
    outer loop
      vertex 6.96352 -8.57341 3.6
      vertex 6.96352 -11.4266 3.6
      vertex 7.71352 -10.8817 3.6
    endloop
  endfacet
  facet normal -0 0 1
    outer loop
      vertex 6.03647 -8.57341 3.6
      vertex 6.96352 -11.4266 3.6
      vertex 6.96352 -8.57341 3.6
    endloop
  endfacet
  facet normal 0 0 1
    outer loop
      vertex 6.03647 -8.57341 3.6
      vertex 6.03647 -11.4266 3.6
      vertex 6.96352 -11.4266 3.6
    endloop
  endfacet
  facet normal -0 0 1
    outer loop
      vertex 5.28647 -9.11832 3.6
      vertex 6.03647 -11.4266 3.6
      vertex 6.03647 -8.57341 3.6
    endloop
  endfacet
  facet normal 0 0 1
    outer loop
      vertex 5.28647 -9.11832 3.6
      vertex 5.28647 -10.8817 3.6
      vertex 6.03647 -11.4266 3.6
    endloop
  endfacet
  facet normal 0 -0 1
    outer loop
      vertex 5.28647 -10.8817 3.6
      vertex 5.28647 -9.11832 3.6
      vertex 5 -10 3.6
    endloop
  endfacet
  facet normal -0.951057 0.309016 0
    outer loop
      vertex 5 -10 0.6
      vertex 5.28647 -9.11832 3.6
      vertex 5.28647 -9.11832 0.6
    endloop
  endfacet
  facet normal -0.951057 0.309016 0
    outer loop
      vertex 5.28647 -9.11832 3.6
      vertex 5 -10 0.6
      vertex 5 -10 3.6
    endloop
  endfacet
  facet normal 0.951056 -0.309018 0
    outer loop
      vertex 7.71352 -10.8817 3.6
      vertex 8 -10 0.6
      vertex 8 -10 3.6
    endloop
  endfacet
  facet normal 0.951056 -0.309018 0
    outer loop
      vertex 8 -10 0.6
      vertex 7.71352 -10.8817 3.6
      vertex 7.71352 -10.8817 0.6
    endloop
  endfacet
  facet normal 0.587785 -0.809017 0
    outer loop
      vertex 6.96352 -11.4266 0.6
      vertex 7.71352 -10.8817 3.6
      vertex 6.96352 -11.4266 3.6
    endloop
  endfacet
  facet normal 0.587785 -0.809017 0
    outer loop
      vertex 7.71352 -10.8817 3.6
      vertex 6.96352 -11.4266 0.6
      vertex 7.71352 -10.8817 0.6
    endloop
  endfacet
  facet normal 0 1 -0
    outer loop
      vertex 6.96352 -8.57341 0.6
      vertex 6.03647 -8.57341 3.6
      vertex 6.96352 -8.57341 3.6
    endloop
  endfacet
  facet normal 0 1 0
    outer loop
      vertex 6.03647 -8.57341 3.6
      vertex 6.96352 -8.57341 0.6
      vertex 6.03647 -8.57341 0.6
    endloop
  endfacet
  facet normal -0.951057 -0.309017 0
    outer loop
      vertex 5.28647 -10.8817 0.6
      vertex 5 -10 3.6
      vertex 5 -10 0.6
    endloop
  endfacet
  facet normal -0.951057 -0.309017 0
    outer loop
      vertex 5 -10 3.6
      vertex 5.28647 -10.8817 0.6
      vertex 5.28647 -10.8817 3.6
    endloop
  endfacet
  facet normal -0.587785 -0.809017 0
    outer loop
      vertex 5.28647 -10.8817 0.6
      vertex 6.03647 -11.4266 3.6
      vertex 5.28647 -10.8817 3.6
    endloop
  endfacet
  facet normal -0.587785 -0.809017 -0
    outer loop
      vertex 6.03647 -11.4266 3.6
      vertex 5.28647 -10.8817 0.6
      vertex 6.03647 -11.4266 0.6
    endloop
  endfacet
  facet normal 0 -1 0
    outer loop
      vertex 6.03647 -11.4266 0.6
      vertex 6.96352 -11.4266 3.6
      vertex 6.03647 -11.4266 3.6
    endloop
  endfacet
  facet normal 0 -1 -0
    outer loop
      vertex 6.96352 -11.4266 3.6
      vertex 6.03647 -11.4266 0.6
      vertex 6.96352 -11.4266 0.6
    endloop
  endfacet
endsolid OpenSCAD_Model
